SplineFontDB: 3.0
FontName: NES-Chimera
FullName: NES Chimera Regular
FamilyName: NES Chimera
Weight: Book
Copyright: Copyright pkeod 2016
Version: 1.0
ItalicAngle: 0
UnderlinePosition: 307
UnderlineWidth: 204
Ascent: 3584
Descent: 512
InvalidEm: 0
sfntRevision: 0x00010000
LayerCount: 2
Layer: 0 1 "Back" 1
Layer: 1 1 "Fore" 0
PreferredKerning: 4
XUID: [1021 798 -682673064 23363]
StyleMap: 0x0040
FSType: 4
OS2Version: 2
OS2_WeightWidthSlopeOnly: 0
OS2_UseTypoMetrics: 0
CreationTime: 1460359242
ModificationTime: 1460367980
PfmFamily: 81
TTFWeight: 400
TTFWidth: 5
LineGap: 0
VLineGap: 0
Panose: 0 0 4 0 0 0 0 0 0 0
OS2TypoAscent: 3584
OS2TypoAOffset: 0
OS2TypoDescent: -512
OS2TypoDOffset: 0
OS2TypoLinegap: 0
OS2WinAscent: 3584
OS2WinAOffset: 0
OS2WinDescent: 512
OS2WinDOffset: 0
HheadAscent: 3584
HheadAOffset: 0
HheadDescent: -512
HheadDOffset: 0
OS2SubXSize: 2048
OS2SubYSize: 2048
OS2SubXOff: 0
OS2SubYOff: -256
OS2SupXSize: 2048
OS2SupYSize: 2048
OS2SupXOff: 0
OS2SupYOff: 2048
OS2StrikeYSize: 204
OS2StrikeYPos: 819
OS2CapHeight: 3584
OS2XHeight: 2560
OS2Vendor: 'FSTR'
OS2CodePages: 000001b1.00000000
OS2UnicodeRanges: 80000003.0000000a.00000000.00000000
MarkAttachClasses: 1
DEI: 91125
ShortTable: maxp 16
  1
  0
  127
  42
  10
  0
  0
  2
  0
  0
  0
  0
  0
  0
  0
  0
EndShort
LangName: 1033 "" "" "Regular" "NES Chimera" "" "Version 1.16.4.11" "" "" "" "pkeod" "+IBwA-NES Chimera+IB0A can be downloaded free at pkeod.com" "https://www.pkeod.com" "https://www.pkeod.com" "Find at https://www.pkeod.com" "" "" "" "" "" "Jinxed wizards pluck ivy from the big quilt. "
Encoding: UnicodeBmp
UnicodeInterp: none
NameList: AGL For New Fonts
DisplaySize: -48
AntiAlias: 1
FitToEm: 0
WinInfo: 0 38 14
BeginPrivate: 0
EndPrivate
TeXData: 1 0 0 0 0 0 -393216 0 0 783286 444596 497025 792723 393216 433062 380633 303038 157286 324010 404750 52429 2506097 1059062 262144
BeginChars: 65539 126

StartChar: exclam
Encoding: 33 33 3
GlifName: exclam
Width: 4096
Flags: W
LayerCount: 2
Fore
SplineSet
1536 0 m 1,0,-1
 1536 512 l 1,1,-1
 2560 512 l 1,2,-1
 2560 0 l 1,3,-1
 1536 0 l 1,0,-1
1536 1024 m 1,4,-1
 1536 2048 l 1,5,-1
 1024 2048 l 1,6,-1
 1024 3072 l 1,7,-1
 1536 3072 l 1,8,-1
 1536 3584 l 1,9,-1
 2560 3584 l 1,10,-1
 2560 3072 l 1,11,-1
 3072 3072 l 1,12,-1
 3072 2048 l 1,13,-1
 2560 2048 l 1,14,-1
 2560 1024 l 1,15,-1
 1536 1024 l 1,4,-1
EndSplineSet
EndChar

StartChar: quotedbl
Encoding: 34 34 4
GlifName: quotedbl
Width: 4096
Flags: W
LayerCount: 2
Fore
SplineSet
1024 2048 m 1,0,-1
 1024 3584 l 1,1,-1
 2048 3584 l 1,2,-1
 2048 2048 l 1,3,-1
 1024 2048 l 1,0,-1
2560 2048 m 1,4,-1
 2560 3584 l 1,5,-1
 3584 3584 l 1,6,-1
 3584 2048 l 1,7,-1
 2560 2048 l 1,4,-1
EndSplineSet
EndChar

StartChar: numbersign
Encoding: 35 35 5
GlifName: numbersign
Width: 4096
Flags: W
LayerCount: 2
Fore
SplineSet
2048 1024 m 1,0,-1
 2048 2560 l 1,1,-1
 1536 2560 l 1,2,-1
 1536 1024 l 1,3,-1
 2048 1024 l 1,0,-1
512 0 m 1,4,-1
 512 512 l 1,5,-1
 0 512 l 1,6,-1
 0 1024 l 1,7,-1
 512 1024 l 1,8,-1
 512 2560 l 1,9,-1
 0 2560 l 1,10,-1
 0 3072 l 1,11,-1
 512 3072 l 1,12,-1
 512 3584 l 1,13,-1
 1536 3584 l 1,14,-1
 1536 3072 l 1,15,-1
 2048 3072 l 1,16,-1
 2048 3584 l 1,17,-1
 3072 3584 l 1,18,-1
 3072 3072 l 1,19,-1
 3584 3072 l 1,20,-1
 3584 2560 l 1,21,-1
 3072 2560 l 1,22,-1
 3072 1024 l 1,23,-1
 3584 1024 l 1,24,-1
 3584 512 l 1,25,-1
 3072 512 l 1,26,-1
 3072 0 l 1,27,-1
 2048 0 l 1,28,-1
 2048 512 l 1,29,-1
 1536 512 l 1,30,-1
 1536 0 l 1,31,-1
 512 0 l 1,4,-1
EndSplineSet
EndChar

StartChar: dollar
Encoding: 36 36 6
GlifName: dollar
Width: 4096
Flags: W
LayerCount: 2
Fore
SplineSet
1024 0 m 1,0,-1
 1024 512 l 1,1,-1
 0 512 l 1,2,-1
 0 1024 l 1,3,-1
 2048 1024 l 1,4,-1
 2048 1536 l 1,5,-1
 512 1536 l 1,6,-1
 512 2048 l 1,7,-1
 0 2048 l 1,8,-1
 0 2560 l 1,9,-1
 512 2560 l 1,10,-1
 512 3072 l 1,11,-1
 1024 3072 l 1,12,-1
 1024 3584 l 1,13,-1
 2048 3584 l 1,14,-1
 2048 3072 l 1,15,-1
 3072 3072 l 1,16,-1
 3072 2560 l 1,17,-1
 1024 2560 l 1,18,-1
 1024 2048 l 1,19,-1
 2560 2048 l 1,20,-1
 2560 1536 l 1,21,-1
 3072 1536 l 1,22,-1
 3072 1024 l 1,23,-1
 2560 1024 l 1,24,-1
 2560 512 l 1,25,-1
 2048 512 l 1,26,-1
 2048 0 l 1,27,-1
 1024 0 l 1,0,-1
EndSplineSet
EndChar

StartChar: percent
Encoding: 37 37 7
GlifName: percent
Width: 4096
Flags: W
LayerCount: 2
Fore
SplineSet
2560 0 m 1,0,-1
 2560 1024 l 1,1,-1
 3584 1024 l 1,2,-1
 3584 0 l 1,3,-1
 2560 0 l 1,0,-1
0 2048 m 1,4,-1
 0 3072 l 1,5,-1
 1024 3072 l 1,6,-1
 1024 2048 l 1,7,-1
 0 2048 l 1,4,-1
0 0 m 1,8,-1
 0 512 l 1,9,-1
 512 512 l 1,10,-1
 512 1024 l 1,11,-1
 1024 1024 l 1,12,-1
 1024 1536 l 1,13,-1
 1536 1536 l 1,14,-1
 1536 2048 l 1,15,-1
 2048 2048 l 1,16,-1
 2048 2560 l 1,17,-1
 2560 2560 l 1,18,-1
 2560 3072 l 1,19,-1
 3584 3072 l 1,20,-1
 3584 2560 l 1,21,-1
 3072 2560 l 1,22,-1
 3072 2048 l 1,23,-1
 2560 2048 l 1,24,-1
 2560 1536 l 1,25,-1
 2048 1536 l 1,26,-1
 2048 1024 l 1,27,-1
 1536 1024 l 1,28,-1
 1536 512 l 1,29,-1
 1024 512 l 1,30,-1
 1024 0 l 1,31,-1
 0 0 l 1,8,-1
EndSplineSet
EndChar

StartChar: ampersand
Encoding: 38 38 8
GlifName: ampersand
Width: 4096
Flags: W
LayerCount: 2
Fore
SplineSet
2048 2560 m 1,0,-1
 2048 3072 l 1,1,-1
 1536 3072 l 1,2,-1
 1536 2560 l 1,3,-1
 2048 2560 l 1,0,-1
512 0 m 1,4,-1
 512 512 l 1,5,-1
 0 512 l 1,6,-1
 0 1536 l 1,7,-1
 512 1536 l 1,8,-1
 512 2048 l 1,9,-1
 1024 2048 l 1,10,-1
 1024 2560 l 1,11,-1
 512 2560 l 1,12,-1
 512 3072 l 1,13,-1
 1024 3072 l 1,14,-1
 1024 3584 l 1,15,-1
 2560 3584 l 1,16,-1
 2560 3072 l 1,17,-1
 3072 3072 l 1,18,-1
 3072 2560 l 1,19,-1
 2560 2560 l 1,20,-1
 2560 2048 l 1,21,-1
 2048 2048 l 1,22,-1
 2048 1536 l 1,23,-1
 2560 1536 l 1,24,-1
 2560 2048 l 1,25,-1
 3584 2048 l 1,26,-1
 3584 1536 l 1,27,-1
 3072 1536 l 1,28,-1
 3072 512 l 1,29,-1
 3584 512 l 1,30,-1
 3584 0 l 1,31,-1
 2560 0 l 1,32,-1
 2560 512 l 1,33,-1
 2048 512 l 1,34,-1
 2048 1024 l 1,35,-1
 1536 1024 l 1,36,-1
 1536 1536 l 1,37,-1
 1024 1536 l 1,38,-1
 1024 512 l 1,39,-1
 2048 512 l 1,40,-1
 2048 0 l 1,41,-1
 512 0 l 1,4,-1
EndSplineSet
EndChar

StartChar: quotesingle
Encoding: 39 39 9
GlifName: quotesingle
Width: 4096
Flags: W
LayerCount: 2
Fore
SplineSet
2048 2048 m 1,0,-1
 2048 3584 l 1,1,-1
 3072 3584 l 1,2,-1
 3072 2048 l 1,3,-1
 2048 2048 l 1,0,-1
EndSplineSet
EndChar

StartChar: parenleft
Encoding: 40 40 10
GlifName: parenleft
Width: 4096
Flags: W
LayerCount: 2
Fore
SplineSet
1536 0 m 1,0,-1
 1536 512 l 1,1,-1
 1024 512 l 1,2,-1
 1024 1024 l 1,3,-1
 512 1024 l 1,4,-1
 512 2560 l 1,5,-1
 1024 2560 l 1,6,-1
 1024 3072 l 1,7,-1
 1536 3072 l 1,8,-1
 1536 3584 l 1,9,-1
 2560 3584 l 1,10,-1
 2560 3072 l 1,11,-1
 2048 3072 l 1,12,-1
 2048 2560 l 1,13,-1
 1536 2560 l 1,14,-1
 1536 1024 l 1,15,-1
 2048 1024 l 1,16,-1
 2048 512 l 1,17,-1
 2560 512 l 1,18,-1
 2560 0 l 1,19,-1
 1536 0 l 1,0,-1
EndSplineSet
EndChar

StartChar: parenright
Encoding: 41 41 11
GlifName: parenright
Width: 4096
Flags: W
LayerCount: 2
Fore
SplineSet
512 0 m 1,0,-1
 512 512 l 1,1,-1
 1024 512 l 1,2,-1
 1024 1024 l 1,3,-1
 1536 1024 l 1,4,-1
 1536 2560 l 1,5,-1
 1024 2560 l 1,6,-1
 1024 3072 l 1,7,-1
 512 3072 l 1,8,-1
 512 3584 l 1,9,-1
 1536 3584 l 1,10,-1
 1536 3072 l 1,11,-1
 2048 3072 l 1,12,-1
 2048 2560 l 1,13,-1
 2560 2560 l 1,14,-1
 2560 1024 l 1,15,-1
 2048 1024 l 1,16,-1
 2048 512 l 1,17,-1
 1536 512 l 1,18,-1
 1536 0 l 1,19,-1
 512 0 l 1,0,-1
EndSplineSet
EndChar

StartChar: asterisk
Encoding: 42 42 12
GlifName: asterisk
Width: 4096
Flags: W
LayerCount: 2
Fore
SplineSet
512 512 m 1,0,-1
 512 1024 l 1,1,-1
 1024 1024 l 1,2,-1
 1024 512 l 1,3,-1
 512 512 l 1,0,-1
2560 512 m 1,4,-1
 2560 1024 l 1,5,-1
 3072 1024 l 1,6,-1
 3072 512 l 1,7,-1
 2560 512 l 1,4,-1
512 2560 m 1,8,-1
 512 3072 l 1,9,-1
 1024 3072 l 1,10,-1
 1024 2560 l 1,11,-1
 512 2560 l 1,8,-1
1536 512 m 1,12,-1
 1536 1024 l 1,13,-1
 1024 1024 l 1,14,-1
 1024 1536 l 1,15,-1
 512 1536 l 1,16,-1
 512 2048 l 1,17,-1
 1024 2048 l 1,18,-1
 1024 2560 l 1,19,-1
 1536 2560 l 1,20,-1
 1536 3072 l 1,21,-1
 2048 3072 l 1,22,-1
 2048 2560 l 1,23,-1
 2560 2560 l 1,24,-1
 2560 2048 l 1,25,-1
 3072 2048 l 1,26,-1
 3072 1536 l 1,27,-1
 2560 1536 l 1,28,-1
 2560 1024 l 1,29,-1
 2048 1024 l 1,30,-1
 2048 512 l 1,31,-1
 1536 512 l 1,12,-1
2560 2560 m 1,32,-1
 2560 3072 l 1,33,-1
 3072 3072 l 1,34,-1
 3072 2560 l 1,35,-1
 2560 2560 l 1,32,-1
EndSplineSet
EndChar

StartChar: plus
Encoding: 43 43 13
GlifName: plus
Width: 4096
Flags: W
LayerCount: 2
Fore
SplineSet
1024 512 m 1,0,-1
 1024 1536 l 1,1,-1
 0 1536 l 1,2,-1
 0 2560 l 1,3,-1
 1024 2560 l 1,4,-1
 1024 3584 l 1,5,-1
 2048 3584 l 1,6,-1
 2048 2560 l 1,7,-1
 3072 2560 l 1,8,-1
 3072 1536 l 1,9,-1
 2048 1536 l 1,10,-1
 2048 512 l 1,11,-1
 1024 512 l 1,0,-1
EndSplineSet
EndChar

StartChar: comma
Encoding: 44 44 14
GlifName: comma
Width: 4096
Flags: W
LayerCount: 2
Fore
SplineSet
1024 -512 m 1,0,-1
 1024 0 l 1,1,-1
 1536 0 l 1,2,-1
 1536 1024 l 1,3,-1
 2560 1024 l 1,4,-1
 2560 0 l 1,5,-1
 2048 0 l 1,6,-1
 2048 -512 l 1,7,-1
 1024 -512 l 1,0,-1
EndSplineSet
EndChar

StartChar: hyphen
Encoding: 45 45 15
GlifName: hyphen
Width: 4096
Flags: W
LayerCount: 2
Fore
SplineSet
0 1536 m 1,0,-1
 0 2560 l 1,1,-1
 3072 2560 l 1,2,-1
 3072 1536 l 1,3,-1
 0 1536 l 1,0,-1
EndSplineSet
EndChar

StartChar: period
Encoding: 46 46 16
GlifName: period
Width: 4096
Flags: W
LayerCount: 2
Fore
SplineSet
1536 0 m 1,0,-1
 1536 1024 l 1,1,-1
 2560 1024 l 1,2,-1
 2560 0 l 1,3,-1
 1536 0 l 1,0,-1
EndSplineSet
EndChar

StartChar: slash
Encoding: 47 47 17
GlifName: slash
Width: 4096
Flags: W
LayerCount: 2
Fore
SplineSet
0 0 m 1,0,-1
 0 1024 l 1,1,-1
 512 1024 l 1,2,-1
 512 1536 l 1,3,-1
 1024 1536 l 1,4,-1
 1024 2048 l 1,5,-1
 1536 2048 l 1,6,-1
 1536 2560 l 1,7,-1
 2048 2560 l 1,8,-1
 2048 3072 l 1,9,-1
 2560 3072 l 1,10,-1
 2560 3584 l 1,11,-1
 3584 3584 l 1,12,-1
 3584 3072 l 1,13,-1
 3072 3072 l 1,14,-1
 3072 2560 l 1,15,-1
 2560 2560 l 1,16,-1
 2560 2048 l 1,17,-1
 2048 2048 l 1,18,-1
 2048 1536 l 1,19,-1
 1536 1536 l 1,20,-1
 1536 1024 l 1,21,-1
 1024 1024 l 1,22,-1
 1024 512 l 1,23,-1
 512 512 l 1,24,-1
 512 0 l 1,25,-1
 0 0 l 1,0,-1
EndSplineSet
EndChar

StartChar: zero
Encoding: 48 48 18
GlifName: zero
Width: 4096
Flags: W
LayerCount: 2
Fore
SplineSet
1536 1536 m 1,0,-1
 1536 2048 l 1,1,-1
 2048 2048 l 1,2,-1
 2048 1536 l 1,3,-1
 1536 1536 l 1,0,-1
1024 0 m 1,4,-1
 1024 512 l 1,5,-1
 512 512 l 1,6,-1
 512 1024 l 1,7,-1
 0 1024 l 1,8,-1
 0 2560 l 1,9,-1
 512 2560 l 1,10,-1
 512 3072 l 1,11,-1
 1024 3072 l 1,12,-1
 1024 1536 l 1,13,-1
 1536 1536 l 1,14,-1
 1536 512 l 1,15,-1
 2560 512 l 1,16,-1
 2560 0 l 1,17,-1
 1024 0 l 1,4,-1
2560 512 m 1,18,-1
 2560 2048 l 1,19,-1
 2048 2048 l 1,20,-1
 2048 3072 l 1,21,-1
 1024 3072 l 1,22,-1
 1024 3584 l 1,23,-1
 2560 3584 l 1,24,-1
 2560 3072 l 1,25,-1
 3072 3072 l 1,26,-1
 3072 2560 l 1,27,-1
 3584 2560 l 1,28,-1
 3584 1024 l 1,29,-1
 3072 1024 l 1,30,-1
 3072 512 l 1,31,-1
 2560 512 l 1,18,-1
EndSplineSet
EndChar

StartChar: one
Encoding: 49 49 19
GlifName: one
Width: 4096
Flags: W
LayerCount: 2
Fore
SplineSet
0 0 m 1,0,-1
 0 512 l 1,1,-1
 1024 512 l 1,2,-1
 1024 2560 l 1,3,-1
 512 2560 l 1,4,-1
 512 3072 l 1,5,-1
 1024 3072 l 1,6,-1
 1024 3584 l 1,7,-1
 2048 3584 l 1,8,-1
 2048 512 l 1,9,-1
 3072 512 l 1,10,-1
 3072 0 l 1,11,-1
 0 0 l 1,0,-1
EndSplineSet
EndChar

StartChar: two
Encoding: 50 50 20
GlifName: two
Width: 4096
Flags: W
LayerCount: 2
Fore
SplineSet
0 0 m 1,0,-1
 0 512 l 1,1,-1
 512 512 l 1,2,-1
 512 1024 l 1,3,-1
 1024 1024 l 1,4,-1
 1024 1536 l 1,5,-1
 1536 1536 l 1,6,-1
 1536 2048 l 1,7,-1
 2048 2048 l 1,8,-1
 2048 2560 l 1,9,-1
 2560 2560 l 1,10,-1
 2560 3072 l 1,11,-1
 1024 3072 l 1,12,-1
 1024 2560 l 1,13,-1
 0 2560 l 1,14,-1
 0 3072 l 1,15,-1
 512 3072 l 1,16,-1
 512 3584 l 1,17,-1
 3072 3584 l 1,18,-1
 3072 3072 l 1,19,-1
 3584 3072 l 1,20,-1
 3584 2560 l 1,21,-1
 3072 2560 l 1,22,-1
 3072 2048 l 1,23,-1
 2560 2048 l 1,24,-1
 2560 1536 l 1,25,-1
 2048 1536 l 1,26,-1
 2048 1024 l 1,27,-1
 1536 1024 l 1,28,-1
 1536 512 l 1,29,-1
 3584 512 l 1,30,-1
 3584 0 l 1,31,-1
 0 0 l 1,0,-1
EndSplineSet
EndChar

StartChar: three
Encoding: 51 51 21
GlifName: three
Width: 4096
Flags: W
LayerCount: 2
Fore
SplineSet
512 0 m 1,0,-1
 512 512 l 1,1,-1
 0 512 l 1,2,-1
 0 1024 l 1,3,-1
 1024 1024 l 1,4,-1
 1024 512 l 1,5,-1
 2560 512 l 1,6,-1
 2560 1536 l 1,7,-1
 1024 1536 l 1,8,-1
 1024 2048 l 1,9,-1
 1536 2048 l 1,10,-1
 1536 2560 l 1,11,-1
 2048 2560 l 1,12,-1
 2048 3072 l 1,13,-1
 512 3072 l 1,14,-1
 512 3584 l 1,15,-1
 3584 3584 l 1,16,-1
 3584 3072 l 1,17,-1
 3072 3072 l 1,18,-1
 3072 2560 l 1,19,-1
 2560 2560 l 1,20,-1
 2560 2048 l 1,21,-1
 3072 2048 l 1,22,-1
 3072 1536 l 1,23,-1
 3584 1536 l 1,24,-1
 3584 512 l 1,25,-1
 3072 512 l 1,26,-1
 3072 0 l 1,27,-1
 512 0 l 1,0,-1
EndSplineSet
EndChar

StartChar: four
Encoding: 52 52 22
GlifName: four
Width: 4096
Flags: W
LayerCount: 2
Fore
SplineSet
2048 1536 m 1,0,-1
 2048 2560 l 1,1,-1
 1536 2560 l 1,2,-1
 1536 2048 l 1,3,-1
 1024 2048 l 1,4,-1
 1024 1536 l 1,5,-1
 2048 1536 l 1,0,-1
2048 0 m 1,6,-1
 2048 1024 l 1,7,-1
 0 1024 l 1,8,-1
 0 2048 l 1,9,-1
 512 2048 l 1,10,-1
 512 2560 l 1,11,-1
 1024 2560 l 1,12,-1
 1024 3072 l 1,13,-1
 1536 3072 l 1,14,-1
 1536 3584 l 1,15,-1
 3072 3584 l 1,16,-1
 3072 1536 l 1,17,-1
 3584 1536 l 1,18,-1
 3584 1024 l 1,19,-1
 3072 1024 l 1,20,-1
 3072 0 l 1,21,-1
 2048 0 l 1,6,-1
EndSplineSet
EndChar

StartChar: five
Encoding: 53 53 23
GlifName: five
Width: 4096
Flags: W
LayerCount: 2
Fore
SplineSet
512 0 m 1,0,-1
 512 512 l 1,1,-1
 0 512 l 1,2,-1
 0 1024 l 1,3,-1
 1024 1024 l 1,4,-1
 1024 512 l 1,5,-1
 2560 512 l 1,6,-1
 2560 2048 l 1,7,-1
 0 2048 l 1,8,-1
 0 3584 l 1,9,-1
 3072 3584 l 1,10,-1
 3072 3072 l 1,11,-1
 1024 3072 l 1,12,-1
 1024 2560 l 1,13,-1
 3072 2560 l 1,14,-1
 3072 2048 l 1,15,-1
 3584 2048 l 1,16,-1
 3584 512 l 1,17,-1
 3072 512 l 1,18,-1
 3072 0 l 1,19,-1
 512 0 l 1,0,-1
EndSplineSet
EndChar

StartChar: six
Encoding: 54 54 24
GlifName: six
Width: 4096
Flags: W
LayerCount: 2
Fore
SplineSet
2560 512 m 1,0,-1
 2560 1536 l 1,1,-1
 1024 1536 l 1,2,-1
 1024 512 l 1,3,-1
 2560 512 l 1,0,-1
512 0 m 1,4,-1
 512 512 l 1,5,-1
 0 512 l 1,6,-1
 0 2560 l 1,7,-1
 512 2560 l 1,8,-1
 512 3072 l 1,9,-1
 1024 3072 l 1,10,-1
 1024 2048 l 1,11,-1
 3072 2048 l 1,12,-1
 3072 1536 l 1,13,-1
 3584 1536 l 1,14,-1
 3584 512 l 1,15,-1
 3072 512 l 1,16,-1
 3072 0 l 1,17,-1
 512 0 l 1,4,-1
1024 3072 m 1,18,-1
 1024 3584 l 1,19,-1
 3072 3584 l 1,20,-1
 3072 3072 l 1,21,-1
 1024 3072 l 1,18,-1
EndSplineSet
EndChar

StartChar: seven
Encoding: 55 55 25
GlifName: seven
Width: 4096
Flags: W
LayerCount: 2
Fore
SplineSet
1024 0 m 1,0,-1
 1024 1536 l 1,1,-1
 1536 1536 l 1,2,-1
 1536 2048 l 1,3,-1
 2048 2048 l 1,4,-1
 2048 2560 l 1,5,-1
 2560 2560 l 1,6,-1
 2560 3072 l 1,7,-1
 1024 3072 l 1,8,-1
 1024 2560 l 1,9,-1
 0 2560 l 1,10,-1
 0 3584 l 1,11,-1
 3584 3584 l 1,12,-1
 3584 2560 l 1,13,-1
 3072 2560 l 1,14,-1
 3072 2048 l 1,15,-1
 2560 2048 l 1,16,-1
 2560 1536 l 1,17,-1
 2048 1536 l 1,18,-1
 2048 0 l 1,19,-1
 1024 0 l 1,0,-1
EndSplineSet
EndChar

StartChar: eight
Encoding: 56 56 26
GlifName: eight
Width: 4096
Flags: W
LayerCount: 2
Fore
SplineSet
2560 512 m 1,0,-1
 2560 1536 l 1,1,-1
 1024 1536 l 1,2,-1
 1024 512 l 1,3,-1
 2560 512 l 1,0,-1
2560 2048 m 1,4,-1
 2560 3072 l 1,5,-1
 1024 3072 l 1,6,-1
 1024 2048 l 1,7,-1
 2560 2048 l 1,4,-1
512 0 m 1,8,-1
 512 512 l 1,9,-1
 0 512 l 1,10,-1
 0 1536 l 1,11,-1
 512 1536 l 1,12,-1
 512 2048 l 1,13,-1
 0 2048 l 1,14,-1
 0 3072 l 1,15,-1
 512 3072 l 1,16,-1
 512 3584 l 1,17,-1
 3072 3584 l 1,18,-1
 3072 3072 l 1,19,-1
 3584 3072 l 1,20,-1
 3584 2048 l 1,21,-1
 3072 2048 l 1,22,-1
 3072 1536 l 1,23,-1
 3584 1536 l 1,24,-1
 3584 512 l 1,25,-1
 3072 512 l 1,26,-1
 3072 0 l 1,27,-1
 512 0 l 1,8,-1
EndSplineSet
EndChar

StartChar: nine
Encoding: 57 57 27
GlifName: nine
Width: 4096
Flags: W
LayerCount: 2
Fore
SplineSet
2560 2048 m 1,0,-1
 2560 3072 l 1,1,-1
 1024 3072 l 1,2,-1
 1024 2048 l 1,3,-1
 2560 2048 l 1,0,-1
512 0 m 1,4,-1
 512 512 l 1,5,-1
 2048 512 l 1,6,-1
 2048 1024 l 1,7,-1
 2560 1024 l 1,8,-1
 2560 1536 l 1,9,-1
 512 1536 l 1,10,-1
 512 2048 l 1,11,-1
 0 2048 l 1,12,-1
 0 3072 l 1,13,-1
 512 3072 l 1,14,-1
 512 3584 l 1,15,-1
 3072 3584 l 1,16,-1
 3072 3072 l 1,17,-1
 3584 3072 l 1,18,-1
 3584 1024 l 1,19,-1
 3072 1024 l 1,20,-1
 3072 512 l 1,21,-1
 2560 512 l 1,22,-1
 2560 0 l 1,23,-1
 512 0 l 1,4,-1
EndSplineSet
EndChar

StartChar: colon
Encoding: 58 58 28
GlifName: colon
Width: 4096
Flags: W
LayerCount: 2
Fore
SplineSet
1024 512 m 1,0,-1
 1024 1536 l 1,1,-1
 2048 1536 l 1,2,-1
 2048 512 l 1,3,-1
 1024 512 l 1,0,-1
1024 2048 m 1,4,-1
 1024 3072 l 1,5,-1
 2048 3072 l 1,6,-1
 2048 2048 l 1,7,-1
 1024 2048 l 1,4,-1
EndSplineSet
EndChar

StartChar: semicolon
Encoding: 59 59 29
GlifName: semicolon
Width: 4096
Flags: W
LayerCount: 2
Fore
SplineSet
512 0 m 1,0,-1
 512 512 l 1,1,-1
 1024 512 l 1,2,-1
 1024 1536 l 1,3,-1
 2048 1536 l 1,4,-1
 2048 512 l 1,5,-1
 1536 512 l 1,6,-1
 1536 0 l 1,7,-1
 512 0 l 1,0,-1
1024 2048 m 1,8,-1
 1024 3072 l 1,9,-1
 2048 3072 l 1,10,-1
 2048 2048 l 1,11,-1
 1024 2048 l 1,8,-1
EndSplineSet
EndChar

StartChar: less
Encoding: 60 60 30
GlifName: less
Width: 4096
Flags: W
LayerCount: 2
Fore
SplineSet
2048 0 m 1,0,-1
 2048 512 l 1,1,-1
 1536 512 l 1,2,-1
 1536 1024 l 1,3,-1
 1024 1024 l 1,4,-1
 1024 1536 l 1,5,-1
 512 1536 l 1,6,-1
 512 2048 l 1,7,-1
 1024 2048 l 1,8,-1
 1024 2560 l 1,9,-1
 1536 2560 l 1,10,-1
 1536 3072 l 1,11,-1
 2048 3072 l 1,12,-1
 2048 3584 l 1,13,-1
 3072 3584 l 1,14,-1
 3072 3072 l 1,15,-1
 2560 3072 l 1,16,-1
 2560 2560 l 1,17,-1
 2048 2560 l 1,18,-1
 2048 2048 l 1,19,-1
 1536 2048 l 1,20,-1
 1536 1536 l 1,21,-1
 2048 1536 l 1,22,-1
 2048 1024 l 1,23,-1
 2560 1024 l 1,24,-1
 2560 512 l 1,25,-1
 3072 512 l 1,26,-1
 3072 0 l 1,27,-1
 2048 0 l 1,0,-1
EndSplineSet
EndChar

StartChar: equal
Encoding: 61 61 31
GlifName: equal
Width: 4096
Flags: W
LayerCount: 2
Fore
SplineSet
0 512 m 1,0,-1
 0 1536 l 1,1,-1
 3584 1536 l 1,2,-1
 3584 512 l 1,3,-1
 0 512 l 1,0,-1
0 2048 m 1,4,-1
 0 3072 l 1,5,-1
 3584 3072 l 1,6,-1
 3584 2048 l 1,7,-1
 0 2048 l 1,4,-1
EndSplineSet
EndChar

StartChar: greater
Encoding: 62 62 32
GlifName: greater
Width: 4096
Flags: W
LayerCount: 2
Fore
SplineSet
512 0 m 1,0,-1
 512 512 l 1,1,-1
 1024 512 l 1,2,-1
 1024 1024 l 1,3,-1
 1536 1024 l 1,4,-1
 1536 1536 l 1,5,-1
 2048 1536 l 1,6,-1
 2048 2048 l 1,7,-1
 1536 2048 l 1,8,-1
 1536 2560 l 1,9,-1
 1024 2560 l 1,10,-1
 1024 3072 l 1,11,-1
 512 3072 l 1,12,-1
 512 3584 l 1,13,-1
 1536 3584 l 1,14,-1
 1536 3072 l 1,15,-1
 2048 3072 l 1,16,-1
 2048 2560 l 1,17,-1
 2560 2560 l 1,18,-1
 2560 2048 l 1,19,-1
 3072 2048 l 1,20,-1
 3072 1536 l 1,21,-1
 2560 1536 l 1,22,-1
 2560 1024 l 1,23,-1
 2048 1024 l 1,24,-1
 2048 512 l 1,25,-1
 1536 512 l 1,26,-1
 1536 0 l 1,27,-1
 512 0 l 1,0,-1
EndSplineSet
EndChar

StartChar: question
Encoding: 63 63 33
GlifName: question
Width: 4096
Flags: W
LayerCount: 2
Fore
SplineSet
1536 0 m 1,0,-1
 1536 512 l 1,1,-1
 2560 512 l 1,2,-1
 2560 0 l 1,3,-1
 1536 0 l 1,0,-1
1536 1024 m 1,4,-1
 1536 1536 l 1,5,-1
 2560 1536 l 1,6,-1
 2560 3072 l 1,7,-1
 1536 3072 l 1,8,-1
 1536 2560 l 1,9,-1
 512 2560 l 1,10,-1
 512 3072 l 1,11,-1
 1024 3072 l 1,12,-1
 1024 3584 l 1,13,-1
 3072 3584 l 1,14,-1
 3072 3072 l 1,15,-1
 3584 3072 l 1,16,-1
 3584 1536 l 1,17,-1
 3072 1536 l 1,18,-1
 3072 1024 l 1,19,-1
 1536 1024 l 1,4,-1
EndSplineSet
EndChar

StartChar: at
Encoding: 64 64 34
GlifName: at
Width: 4096
Flags: W
LayerCount: 2
Fore
SplineSet
512 0 m 1,0,-1
 512 512 l 1,1,-1
 3584 512 l 1,2,-1
 3584 0 l 1,3,-1
 512 0 l 1,0,-1
2048 1536 m 1,4,-1
 2048 2048 l 1,5,-1
 1536 2048 l 1,6,-1
 1536 1536 l 1,7,-1
 2048 1536 l 1,4,-1
1024 1024 m 1,8,-1
 1024 2560 l 1,9,-1
 2560 2560 l 1,10,-1
 2560 1536 l 1,11,-1
 3072 1536 l 1,12,-1
 3072 1024 l 1,13,-1
 1024 1024 l 1,8,-1
0 512 m 1,14,-1
 0 3072 l 1,15,-1
 512 3072 l 1,16,-1
 512 512 l 1,17,-1
 0 512 l 1,14,-1
3072 1536 m 1,18,-1
 3072 3072 l 1,19,-1
 512 3072 l 1,20,-1
 512 3584 l 1,21,-1
 3584 3584 l 1,22,-1
 3584 1536 l 1,23,-1
 3072 1536 l 1,18,-1
EndSplineSet
EndChar

StartChar: A
Encoding: 65 65 35
GlifName: A_
Width: 4096
Flags: W
LayerCount: 2
Fore
SplineSet
2560 2048 m 1,0,-1
 2560 2560 l 1,1,-1
 2048 2560 l 1,2,-1
 2048 3072 l 1,3,-1
 1536 3072 l 1,4,-1
 1536 2560 l 1,5,-1
 1024 2560 l 1,6,-1
 1024 2048 l 1,7,-1
 2560 2048 l 1,0,-1
0 0 m 1,8,-1
 0 2560 l 1,9,-1
 512 2560 l 1,10,-1
 512 3072 l 1,11,-1
 1024 3072 l 1,12,-1
 1024 3584 l 1,13,-1
 2560 3584 l 1,14,-1
 2560 3072 l 1,15,-1
 3072 3072 l 1,16,-1
 3072 2560 l 1,17,-1
 3584 2560 l 1,18,-1
 3584 0 l 1,19,-1
 2560 0 l 1,20,-1
 2560 1536 l 1,21,-1
 1024 1536 l 1,22,-1
 1024 0 l 1,23,-1
 0 0 l 1,8,-1
EndSplineSet
EndChar

StartChar: B
Encoding: 66 66 36
GlifName: B_
Width: 4096
Flags: W
LayerCount: 2
Fore
SplineSet
2560 512 m 1,0,-1
 2560 1536 l 1,1,-1
 1024 1536 l 1,2,-1
 1024 512 l 1,3,-1
 2560 512 l 1,0,-1
2560 2048 m 1,4,-1
 2560 2560 l 1,5,-1
 2048 2560 l 1,6,-1
 2048 3072 l 1,7,-1
 1024 3072 l 1,8,-1
 1024 2048 l 1,9,-1
 2560 2048 l 1,4,-1
0 0 m 1,10,-1
 0 3584 l 1,11,-1
 2560 3584 l 1,12,-1
 2560 3072 l 1,13,-1
 3072 3072 l 1,14,-1
 3072 2560 l 1,15,-1
 3584 2560 l 1,16,-1
 3584 2048 l 1,17,-1
 3072 2048 l 1,18,-1
 3072 1536 l 1,19,-1
 3584 1536 l 1,20,-1
 3584 512 l 1,21,-1
 3072 512 l 1,22,-1
 3072 0 l 1,23,-1
 0 0 l 1,10,-1
EndSplineSet
EndChar

StartChar: C
Encoding: 67 67 37
GlifName: C_
Width: 4096
Flags: W
LayerCount: 2
Fore
SplineSet
1024 0 m 1,0,-1
 1024 512 l 1,1,-1
 512 512 l 1,2,-1
 512 1024 l 1,3,-1
 0 1024 l 1,4,-1
 0 2560 l 1,5,-1
 512 2560 l 1,6,-1
 512 3072 l 1,7,-1
 1024 3072 l 1,8,-1
 1024 3584 l 1,9,-1
 3072 3584 l 1,10,-1
 3072 3072 l 1,11,-1
 3584 3072 l 1,12,-1
 3584 2048 l 1,13,-1
 3072 2048 l 1,14,-1
 3072 2560 l 1,15,-1
 2560 2560 l 1,16,-1
 2560 3072 l 1,17,-1
 1536 3072 l 1,18,-1
 1536 2560 l 1,19,-1
 1024 2560 l 1,20,-1
 1024 1024 l 1,21,-1
 1536 1024 l 1,22,-1
 1536 512 l 1,23,-1
 2560 512 l 1,24,-1
 2560 1024 l 1,25,-1
 3584 1024 l 1,26,-1
 3584 512 l 1,27,-1
 3072 512 l 1,28,-1
 3072 0 l 1,29,-1
 1024 0 l 1,0,-1
EndSplineSet
EndChar

StartChar: D
Encoding: 68 68 38
GlifName: D_
Width: 4096
Flags: W
LayerCount: 2
Fore
SplineSet
2048 512 m 1,0,-1
 2048 1024 l 1,1,-1
 2560 1024 l 1,2,-1
 2560 2048 l 1,3,-1
 2048 2048 l 1,4,-1
 2048 2560 l 1,5,-1
 1536 2560 l 1,6,-1
 1536 3072 l 1,7,-1
 1024 3072 l 1,8,-1
 1024 512 l 1,9,-1
 2048 512 l 1,0,-1
0 0 m 1,10,-1
 0 3584 l 1,11,-1
 2048 3584 l 1,12,-1
 2048 3072 l 1,13,-1
 2560 3072 l 1,14,-1
 2560 2560 l 1,15,-1
 3072 2560 l 1,16,-1
 3072 2048 l 1,17,-1
 3584 2048 l 1,18,-1
 3584 1024 l 1,19,-1
 3072 1024 l 1,20,-1
 3072 512 l 1,21,-1
 2560 512 l 1,22,-1
 2560 0 l 1,23,-1
 0 0 l 1,10,-1
EndSplineSet
EndChar

StartChar: E
Encoding: 69 69 39
GlifName: E_
Width: 4096
Flags: W
LayerCount: 2
Fore
SplineSet
0 0 m 1,0,-1
 0 3584 l 1,1,-1
 3584 3584 l 1,2,-1
 3584 3072 l 1,3,-1
 1024 3072 l 1,4,-1
 1024 2048 l 1,5,-1
 2560 2048 l 1,6,-1
 2560 1536 l 1,7,-1
 1024 1536 l 1,8,-1
 1024 512 l 1,9,-1
 3584 512 l 1,10,-1
 3584 0 l 1,11,-1
 0 0 l 1,0,-1
EndSplineSet
EndChar

StartChar: F
Encoding: 70 70 40
GlifName: F_
Width: 4096
Flags: W
LayerCount: 2
Fore
SplineSet
0 0 m 1,0,-1
 0 3584 l 1,1,-1
 3584 3584 l 1,2,-1
 3584 3072 l 1,3,-1
 1024 3072 l 1,4,-1
 1024 2048 l 1,5,-1
 2560 2048 l 1,6,-1
 2560 1536 l 1,7,-1
 1024 1536 l 1,8,-1
 1024 0 l 1,9,-1
 0 0 l 1,0,-1
EndSplineSet
EndChar

StartChar: G
Encoding: 71 71 41
GlifName: G_
Width: 4096
Flags: W
LayerCount: 2
Fore
SplineSet
512 0 m 1,0,-1
 512 512 l 1,1,-1
 0 512 l 1,2,-1
 0 2560 l 1,3,-1
 512 2560 l 1,4,-1
 512 3072 l 1,5,-1
 1024 3072 l 1,6,-1
 1024 3584 l 1,7,-1
 3584 3584 l 1,8,-1
 3584 3072 l 1,9,-1
 1536 3072 l 1,10,-1
 1536 2560 l 1,11,-1
 1024 2560 l 1,12,-1
 1024 1024 l 1,13,-1
 1536 1024 l 1,14,-1
 1536 512 l 1,15,-1
 2560 512 l 1,16,-1
 2560 1536 l 1,17,-1
 2048 1536 l 1,18,-1
 2048 2048 l 1,19,-1
 3584 2048 l 1,20,-1
 3584 512 l 1,21,-1
 3072 512 l 1,22,-1
 3072 0 l 1,23,-1
 512 0 l 1,0,-1
EndSplineSet
EndChar

StartChar: H
Encoding: 72 72 42
GlifName: H_
Width: 4096
Flags: W
LayerCount: 2
Fore
SplineSet
0 0 m 1,0,-1
 0 3584 l 1,1,-1
 1024 3584 l 1,2,-1
 1024 2048 l 1,3,-1
 2560 2048 l 1,4,-1
 2560 3584 l 1,5,-1
 3584 3584 l 1,6,-1
 3584 0 l 1,7,-1
 2560 0 l 1,8,-1
 2560 1536 l 1,9,-1
 1024 1536 l 1,10,-1
 1024 0 l 1,11,-1
 0 0 l 1,0,-1
EndSplineSet
EndChar

StartChar: I
Encoding: 73 73 43
GlifName: I_
Width: 4096
Flags: W
LayerCount: 2
Fore
SplineSet
512 0 m 1,0,-1
 512 512 l 1,1,-1
 1536 512 l 1,2,-1
 1536 3072 l 1,3,-1
 512 3072 l 1,4,-1
 512 3584 l 1,5,-1
 3584 3584 l 1,6,-1
 3584 3072 l 1,7,-1
 2560 3072 l 1,8,-1
 2560 512 l 1,9,-1
 3584 512 l 1,10,-1
 3584 0 l 1,11,-1
 512 0 l 1,0,-1
EndSplineSet
EndChar

StartChar: J
Encoding: 74 74 44
GlifName: J_
Width: 4096
Flags: W
LayerCount: 2
Fore
SplineSet
512 0 m 1,0,-1
 512 512 l 1,1,-1
 0 512 l 1,2,-1
 0 2048 l 1,3,-1
 1024 2048 l 1,4,-1
 1024 512 l 1,5,-1
 2048 512 l 1,6,-1
 2048 3072 l 1,7,-1
 1024 3072 l 1,8,-1
 1024 3584 l 1,9,-1
 3584 3584 l 1,10,-1
 3584 3072 l 1,11,-1
 3072 3072 l 1,12,-1
 3072 512 l 1,13,-1
 2560 512 l 1,14,-1
 2560 0 l 1,15,-1
 512 0 l 1,0,-1
EndSplineSet
EndChar

StartChar: K
Encoding: 75 75 45
GlifName: K_
Width: 4096
Flags: W
LayerCount: 2
Fore
SplineSet
0 0 m 1,0,-1
 0 3584 l 1,1,-1
 1024 3584 l 1,2,-1
 1024 2048 l 1,3,-1
 1536 2048 l 1,4,-1
 1536 2560 l 1,5,-1
 2048 2560 l 1,6,-1
 2048 3072 l 1,7,-1
 2560 3072 l 1,8,-1
 2560 3584 l 1,9,-1
 3584 3584 l 1,10,-1
 3584 3072 l 1,11,-1
 3072 3072 l 1,12,-1
 3072 2560 l 1,13,-1
 2560 2560 l 1,14,-1
 2560 2048 l 1,15,-1
 2048 2048 l 1,16,-1
 2048 1536 l 1,17,-1
 2560 1536 l 1,18,-1
 2560 1024 l 1,19,-1
 3072 1024 l 1,20,-1
 3072 512 l 1,21,-1
 3584 512 l 1,22,-1
 3584 0 l 1,23,-1
 2048 0 l 1,24,-1
 2048 512 l 1,25,-1
 1536 512 l 1,26,-1
 1536 1024 l 1,27,-1
 1024 1024 l 1,28,-1
 1024 0 l 1,29,-1
 0 0 l 1,0,-1
EndSplineSet
EndChar

StartChar: L
Encoding: 76 76 46
GlifName: L_
Width: 4096
Flags: W
LayerCount: 2
Fore
SplineSet
512 0 m 1,0,-1
 512 3584 l 1,1,-1
 1536 3584 l 1,2,-1
 1536 512 l 1,3,-1
 3584 512 l 1,4,-1
 3584 0 l 1,5,-1
 512 0 l 1,0,-1
EndSplineSet
EndChar

StartChar: M
Encoding: 77 77 47
GlifName: M_
Width: 4096
Flags: W
LayerCount: 2
Fore
SplineSet
0 0 m 1,0,-1
 0 3584 l 1,1,-1
 1024 3584 l 1,2,-1
 1024 3072 l 1,3,-1
 1536 3072 l 1,4,-1
 1536 2560 l 1,5,-1
 2048 2560 l 1,6,-1
 2048 3072 l 1,7,-1
 2560 3072 l 1,8,-1
 2560 3584 l 1,9,-1
 3584 3584 l 1,10,-1
 3584 0 l 1,11,-1
 2560 0 l 1,12,-1
 2560 2048 l 1,13,-1
 2048 2048 l 1,14,-1
 2048 1536 l 1,15,-1
 1536 1536 l 1,16,-1
 1536 2048 l 1,17,-1
 1024 2048 l 1,18,-1
 1024 0 l 1,19,-1
 0 0 l 1,0,-1
EndSplineSet
EndChar

StartChar: N
Encoding: 78 78 48
GlifName: N_
Width: 4096
Flags: W
LayerCount: 2
Fore
SplineSet
0 0 m 1,0,-1
 0 3584 l 1,1,-1
 1024 3584 l 1,2,-1
 1024 3072 l 1,3,-1
 1536 3072 l 1,4,-1
 1536 2560 l 1,5,-1
 2048 2560 l 1,6,-1
 2048 2048 l 1,7,-1
 2560 2048 l 1,8,-1
 2560 3584 l 1,9,-1
 3584 3584 l 1,10,-1
 3584 0 l 1,11,-1
 2560 0 l 1,12,-1
 2560 1024 l 1,13,-1
 2048 1024 l 1,14,-1
 2048 1536 l 1,15,-1
 1536 1536 l 1,16,-1
 1536 2048 l 1,17,-1
 1024 2048 l 1,18,-1
 1024 0 l 1,19,-1
 0 0 l 1,0,-1
EndSplineSet
EndChar

StartChar: O
Encoding: 79 79 49
GlifName: O_
Width: 4096
Flags: W
LayerCount: 2
Fore
SplineSet
2560 512 m 1,0,-1
 2560 3072 l 1,1,-1
 1024 3072 l 1,2,-1
 1024 512 l 1,3,-1
 2560 512 l 1,0,-1
512 0 m 1,4,-1
 512 512 l 1,5,-1
 0 512 l 1,6,-1
 0 3072 l 1,7,-1
 512 3072 l 1,8,-1
 512 3584 l 1,9,-1
 3072 3584 l 1,10,-1
 3072 3072 l 1,11,-1
 3584 3072 l 1,12,-1
 3584 512 l 1,13,-1
 3072 512 l 1,14,-1
 3072 0 l 1,15,-1
 512 0 l 1,4,-1
EndSplineSet
EndChar

StartChar: P
Encoding: 80 80 50
GlifName: P_
Width: 4096
Flags: W
LayerCount: 2
Fore
SplineSet
2560 1536 m 1,0,-1
 2560 3072 l 1,1,-1
 1024 3072 l 1,2,-1
 1024 1536 l 1,3,-1
 2560 1536 l 1,0,-1
0 0 m 1,4,-1
 0 3072 l 1,5,-1
 512 3072 l 1,6,-1
 512 3584 l 1,7,-1
 3072 3584 l 1,8,-1
 3072 3072 l 1,9,-1
 3584 3072 l 1,10,-1
 3584 1536 l 1,11,-1
 3072 1536 l 1,12,-1
 3072 1024 l 1,13,-1
 1024 1024 l 1,14,-1
 1024 0 l 1,15,-1
 0 0 l 1,4,-1
EndSplineSet
EndChar

StartChar: Q
Encoding: 81 81 51
GlifName: Q_
Width: 4096
Flags: W
LayerCount: 2
Fore
SplineSet
3072 0 m 1,0,-1
 3072 512 l 1,1,-1
 3584 512 l 1,2,-1
 3584 0 l 1,3,-1
 3072 0 l 1,0,-1
2048 512 m 1,4,-1
 2048 1024 l 1,5,-1
 1536 1024 l 1,6,-1
 1536 1536 l 1,7,-1
 2560 1536 l 1,8,-1
 2560 3072 l 1,9,-1
 1536 3072 l 1,10,-1
 1536 2560 l 1,11,-1
 1024 2560 l 1,12,-1
 1024 512 l 1,13,-1
 2048 512 l 1,4,-1
512 0 m 1,14,-1
 512 512 l 1,15,-1
 0 512 l 1,16,-1
 0 2560 l 1,17,-1
 512 2560 l 1,18,-1
 512 3072 l 1,19,-1
 1024 3072 l 1,20,-1
 1024 3584 l 1,21,-1
 3072 3584 l 1,22,-1
 3072 3072 l 1,23,-1
 3584 3072 l 1,24,-1
 3584 1024 l 1,25,-1
 3072 1024 l 1,26,-1
 3072 512 l 1,27,-1
 2560 512 l 1,28,-1
 2560 0 l 1,29,-1
 512 0 l 1,14,-1
EndSplineSet
EndChar

StartChar: R
Encoding: 82 82 52
GlifName: R_
Width: 4096
Flags: W
LayerCount: 2
Fore
SplineSet
2048 1536 m 1,0,-1
 2048 2048 l 1,1,-1
 2560 2048 l 1,2,-1
 2560 2560 l 1,3,-1
 2048 2560 l 1,4,-1
 2048 3072 l 1,5,-1
 1024 3072 l 1,6,-1
 1024 1536 l 1,7,-1
 2048 1536 l 1,0,-1
0 0 m 1,8,-1
 0 3072 l 1,9,-1
 512 3072 l 1,10,-1
 512 3584 l 1,11,-1
 2560 3584 l 1,12,-1
 2560 3072 l 1,13,-1
 3072 3072 l 1,14,-1
 3072 2560 l 1,15,-1
 3584 2560 l 1,16,-1
 3584 2048 l 1,17,-1
 3072 2048 l 1,18,-1
 3072 1536 l 1,19,-1
 2560 1536 l 1,20,-1
 2560 1024 l 1,21,-1
 3072 1024 l 1,22,-1
 3072 512 l 1,23,-1
 3584 512 l 1,24,-1
 3584 0 l 1,25,-1
 2048 0 l 1,26,-1
 2048 512 l 1,27,-1
 1536 512 l 1,28,-1
 1536 1024 l 1,29,-1
 1024 1024 l 1,30,-1
 1024 0 l 1,31,-1
 0 0 l 1,8,-1
EndSplineSet
EndChar

StartChar: S
Encoding: 83 83 53
GlifName: S_
Width: 4096
Flags: W
LayerCount: 2
Fore
SplineSet
512 0 m 1,0,-1
 512 512 l 1,1,-1
 0 512 l 1,2,-1
 0 1024 l 1,3,-1
 1024 1024 l 1,4,-1
 1024 512 l 1,5,-1
 2560 512 l 1,6,-1
 2560 1536 l 1,7,-1
 512 1536 l 1,8,-1
 512 2048 l 1,9,-1
 0 2048 l 1,10,-1
 0 3072 l 1,11,-1
 512 3072 l 1,12,-1
 512 3584 l 1,13,-1
 3072 3584 l 1,14,-1
 3072 3072 l 1,15,-1
 3584 3072 l 1,16,-1
 3584 2560 l 1,17,-1
 2560 2560 l 1,18,-1
 2560 3072 l 1,19,-1
 1024 3072 l 1,20,-1
 1024 2048 l 1,21,-1
 3072 2048 l 1,22,-1
 3072 1536 l 1,23,-1
 3584 1536 l 1,24,-1
 3584 512 l 1,25,-1
 3072 512 l 1,26,-1
 3072 0 l 1,27,-1
 512 0 l 1,0,-1
EndSplineSet
EndChar

StartChar: T
Encoding: 84 84 54
GlifName: T_
Width: 4096
Flags: W
LayerCount: 2
Fore
SplineSet
1536 0 m 1,0,-1
 1536 3072 l 1,1,-1
 512 3072 l 1,2,-1
 512 3584 l 1,3,-1
 3584 3584 l 1,4,-1
 3584 3072 l 1,5,-1
 2560 3072 l 1,6,-1
 2560 0 l 1,7,-1
 1536 0 l 1,0,-1
EndSplineSet
EndChar

StartChar: U
Encoding: 85 85 55
GlifName: U_
Width: 4096
Flags: W
LayerCount: 2
Fore
SplineSet
512 0 m 1,0,-1
 512 512 l 1,1,-1
 0 512 l 1,2,-1
 0 3584 l 1,3,-1
 1024 3584 l 1,4,-1
 1024 512 l 1,5,-1
 2560 512 l 1,6,-1
 2560 3584 l 1,7,-1
 3584 3584 l 1,8,-1
 3584 512 l 1,9,-1
 3072 512 l 1,10,-1
 3072 0 l 1,11,-1
 512 0 l 1,0,-1
EndSplineSet
EndChar

StartChar: V
Encoding: 86 86 56
GlifName: V_
Width: 4096
Flags: W
LayerCount: 2
Fore
SplineSet
1536 0 m 1,0,-1
 1536 512 l 1,1,-1
 1024 512 l 1,2,-1
 1024 1024 l 1,3,-1
 512 1024 l 1,4,-1
 512 2048 l 1,5,-1
 0 2048 l 1,6,-1
 0 3584 l 1,7,-1
 1024 3584 l 1,8,-1
 1024 2048 l 1,9,-1
 1536 2048 l 1,10,-1
 1536 1536 l 1,11,-1
 2048 1536 l 1,12,-1
 2048 2048 l 1,13,-1
 2560 2048 l 1,14,-1
 2560 3584 l 1,15,-1
 3584 3584 l 1,16,-1
 3584 2048 l 1,17,-1
 3072 2048 l 1,18,-1
 3072 1024 l 1,19,-1
 2560 1024 l 1,20,-1
 2560 512 l 1,21,-1
 2048 512 l 1,22,-1
 2048 0 l 1,23,-1
 1536 0 l 1,0,-1
EndSplineSet
EndChar

StartChar: W
Encoding: 87 87 57
GlifName: W_
Width: 4096
Flags: W
LayerCount: 2
Fore
SplineSet
0 0 m 1,0,-1
 0 3584 l 1,1,-1
 1024 3584 l 1,2,-1
 1024 1536 l 1,3,-1
 1536 1536 l 1,4,-1
 1536 2560 l 1,5,-1
 2048 2560 l 1,6,-1
 2048 1536 l 1,7,-1
 2560 1536 l 1,8,-1
 2560 3584 l 1,9,-1
 3584 3584 l 1,10,-1
 3584 0 l 1,11,-1
 2560 0 l 1,12,-1
 2560 512 l 1,13,-1
 2048 512 l 1,14,-1
 2048 1024 l 1,15,-1
 1536 1024 l 1,16,-1
 1536 512 l 1,17,-1
 1024 512 l 1,18,-1
 1024 0 l 1,19,-1
 0 0 l 1,0,-1
EndSplineSet
EndChar

StartChar: X
Encoding: 88 88 58
GlifName: X_
Width: 4096
Flags: W
LayerCount: 2
Fore
SplineSet
0 0 m 1,0,-1
 0 1024 l 1,1,-1
 512 1024 l 1,2,-1
 512 1536 l 1,3,-1
 1024 1536 l 1,4,-1
 1024 2048 l 1,5,-1
 512 2048 l 1,6,-1
 512 2560 l 1,7,-1
 0 2560 l 1,8,-1
 0 3584 l 1,9,-1
 1024 3584 l 1,10,-1
 1024 3072 l 1,11,-1
 1536 3072 l 1,12,-1
 1536 2560 l 1,13,-1
 2048 2560 l 1,14,-1
 2048 3072 l 1,15,-1
 2560 3072 l 1,16,-1
 2560 3584 l 1,17,-1
 3584 3584 l 1,18,-1
 3584 2560 l 1,19,-1
 3072 2560 l 1,20,-1
 3072 2048 l 1,21,-1
 2560 2048 l 1,22,-1
 2560 1536 l 1,23,-1
 3072 1536 l 1,24,-1
 3072 1024 l 1,25,-1
 3584 1024 l 1,26,-1
 3584 0 l 1,27,-1
 2560 0 l 1,28,-1
 2560 512 l 1,29,-1
 2048 512 l 1,30,-1
 2048 1024 l 1,31,-1
 1536 1024 l 1,32,-1
 1536 512 l 1,33,-1
 1024 512 l 1,34,-1
 1024 0 l 1,35,-1
 0 0 l 1,0,-1
EndSplineSet
EndChar

StartChar: Y
Encoding: 89 89 59
GlifName: Y_
Width: 4096
Flags: W
LayerCount: 2
Fore
SplineSet
1536 0 m 1,0,-1
 1536 1536 l 1,1,-1
 1024 1536 l 1,2,-1
 1024 2048 l 1,3,-1
 512 2048 l 1,4,-1
 512 3584 l 1,5,-1
 1536 3584 l 1,6,-1
 1536 2048 l 1,7,-1
 2560 2048 l 1,8,-1
 2560 3584 l 1,9,-1
 3584 3584 l 1,10,-1
 3584 2048 l 1,11,-1
 3072 2048 l 1,12,-1
 3072 1536 l 1,13,-1
 2560 1536 l 1,14,-1
 2560 0 l 1,15,-1
 1536 0 l 1,0,-1
EndSplineSet
EndChar

StartChar: Z
Encoding: 90 90 60
GlifName: Z_
Width: 4096
Flags: W
LayerCount: 2
Fore
SplineSet
0 0 m 1,0,-1
 0 1024 l 1,1,-1
 512 1024 l 1,2,-1
 512 1536 l 1,3,-1
 1024 1536 l 1,4,-1
 1024 2048 l 1,5,-1
 1536 2048 l 1,6,-1
 1536 2560 l 1,7,-1
 2048 2560 l 1,8,-1
 2048 3072 l 1,9,-1
 0 3072 l 1,10,-1
 0 3584 l 1,11,-1
 3584 3584 l 1,12,-1
 3584 2560 l 1,13,-1
 3072 2560 l 1,14,-1
 3072 2048 l 1,15,-1
 2560 2048 l 1,16,-1
 2560 1536 l 1,17,-1
 2048 1536 l 1,18,-1
 2048 1024 l 1,19,-1
 1536 1024 l 1,20,-1
 1536 512 l 1,21,-1
 3584 512 l 1,22,-1
 3584 0 l 1,23,-1
 0 0 l 1,0,-1
EndSplineSet
EndChar

StartChar: bracketleft
Encoding: 91 91 61
GlifName: bracketleft
Width: 4096
Flags: W
LayerCount: 2
Fore
SplineSet
512 0 m 1,0,-1
 512 3584 l 1,1,-1
 2048 3584 l 1,2,-1
 2048 3072 l 1,3,-1
 1536 3072 l 1,4,-1
 1536 512 l 1,5,-1
 2048 512 l 1,6,-1
 2048 0 l 1,7,-1
 512 0 l 1,0,-1
EndSplineSet
EndChar

StartChar: backslash
Encoding: 92 92 62
GlifName: backslash
Width: 4096
Flags: W
LayerCount: 2
Fore
SplineSet
3072 0 m 1,0,-1
 3072 512 l 1,1,-1
 2560 512 l 1,2,-1
 2560 1024 l 1,3,-1
 2048 1024 l 1,4,-1
 2048 1536 l 1,5,-1
 1536 1536 l 1,6,-1
 1536 2048 l 1,7,-1
 1024 2048 l 1,8,-1
 1024 2560 l 1,9,-1
 512 2560 l 1,10,-1
 512 3072 l 1,11,-1
 0 3072 l 1,12,-1
 0 3584 l 1,13,-1
 1024 3584 l 1,14,-1
 1024 3072 l 1,15,-1
 1536 3072 l 1,16,-1
 1536 2560 l 1,17,-1
 2048 2560 l 1,18,-1
 2048 2048 l 1,19,-1
 2560 2048 l 1,20,-1
 2560 1536 l 1,21,-1
 3072 1536 l 1,22,-1
 3072 1024 l 1,23,-1
 3584 1024 l 1,24,-1
 3584 0 l 1,25,-1
 3072 0 l 1,0,-1
EndSplineSet
EndChar

StartChar: bracketright
Encoding: 93 93 63
GlifName: bracketright
Width: 4096
Flags: W
LayerCount: 2
Fore
SplineSet
1024 0 m 1,0,-1
 1024 512 l 1,1,-1
 1536 512 l 1,2,-1
 1536 3072 l 1,3,-1
 1024 3072 l 1,4,-1
 1024 3584 l 1,5,-1
 2560 3584 l 1,6,-1
 2560 0 l 1,7,-1
 1024 0 l 1,0,-1
EndSplineSet
EndChar

StartChar: asciicircum
Encoding: 94 94 64
GlifName: asciicircum
Width: 4096
Flags: W
LayerCount: 2
Fore
SplineSet
0 1536 m 1,0,-1
 0 2048 l 1,1,-1
 512 2048 l 1,2,-1
 512 2560 l 1,3,-1
 1024 2560 l 1,4,-1
 1024 3072 l 1,5,-1
 1536 3072 l 1,6,-1
 1536 3584 l 1,7,-1
 2048 3584 l 1,8,-1
 2048 3072 l 1,9,-1
 2560 3072 l 1,10,-1
 2560 2560 l 1,11,-1
 3072 2560 l 1,12,-1
 3072 2048 l 1,13,-1
 3584 2048 l 1,14,-1
 3584 1536 l 1,15,-1
 2560 1536 l 1,16,-1
 2560 2048 l 1,17,-1
 2048 2048 l 1,18,-1
 2048 2560 l 1,19,-1
 1536 2560 l 1,20,-1
 1536 2048 l 1,21,-1
 1024 2048 l 1,22,-1
 1024 1536 l 1,23,-1
 0 1536 l 1,0,-1
EndSplineSet
EndChar

StartChar: underscore
Encoding: 95 95 65
GlifName: underscore
Width: 4096
Flags: W
LayerCount: 2
Fore
SplineSet
512 0 m 1,0,-1
 512 512 l 1,1,-1
 3584 512 l 1,2,-1
 3584 0 l 1,3,-1
 512 0 l 1,0,-1
EndSplineSet
EndChar

StartChar: grave
Encoding: 96 96 66
GlifName: grave
Width: 4096
Flags: W
LayerCount: 2
Fore
SplineSet
1024 2048 m 1,0,-1
 1024 2560 l 1,1,-1
 512 2560 l 1,2,-1
 512 3072 l 1,3,-1
 0 3072 l 1,4,-1
 0 3584 l 1,5,-1
 1024 3584 l 1,6,-1
 1024 3072 l 1,7,-1
 1536 3072 l 1,8,-1
 1536 2048 l 1,9,-1
 1024 2048 l 1,0,-1
EndSplineSet
EndChar

StartChar: a
Encoding: 97 97 67
GlifName: a
Width: 4096
Flags: W
LayerCount: 2
Fore
SplineSet
1024 0 m 1,0,-1
 1024 512 l 1,1,-1
 512 512 l 1,2,-1
 512 2048 l 1,3,-1
 1024 2048 l 1,4,-1
 1024 2560 l 1,5,-1
 3072 2560 l 1,6,-1
 3072 2048 l 1,7,-1
 3584 2048 l 1,8,-1
 3584 512 l 1,9,-1
 4096 512 l 1,10,-1
 4096 0 l 1,11,-1
 3072 0 l 1,12,-1
 3072 512 l 1,13,-1
 2560 512 l 1,14,-1
 2560 2048 l 1,15,-1
 1536 2048 l 1,16,-1
 1536 512 l 1,17,-1
 2560 512 l 1,18,-1
 2560 0 l 1,19,-1
 1024 0 l 1,0,-1
EndSplineSet
EndChar

StartChar: b
Encoding: 98 98 68
GlifName: b
Width: 4096
Flags: W
LayerCount: 2
Fore
SplineSet
2560 512 m 1,0,-1
 2560 2048 l 1,1,-1
 1536 2048 l 1,2,-1
 1536 512 l 1,3,-1
 2560 512 l 1,0,-1
512 0 m 1,4,-1
 512 3584 l 1,5,-1
 1536 3584 l 1,6,-1
 1536 2560 l 1,7,-1
 3072 2560 l 1,8,-1
 3072 2048 l 1,9,-1
 3584 2048 l 1,10,-1
 3584 512 l 1,11,-1
 3072 512 l 1,12,-1
 3072 0 l 1,13,-1
 512 0 l 1,4,-1
EndSplineSet
EndChar

StartChar: c
Encoding: 99 99 69
GlifName: c
Width: 4096
Flags: W
LayerCount: 2
Fore
SplineSet
1024 0 m 1,0,-1
 1024 512 l 1,1,-1
 512 512 l 1,2,-1
 512 2048 l 1,3,-1
 1024 2048 l 1,4,-1
 1024 2560 l 1,5,-1
 3584 2560 l 1,6,-1
 3584 2048 l 1,7,-1
 1536 2048 l 1,8,-1
 1536 512 l 1,9,-1
 3584 512 l 1,10,-1
 3584 0 l 1,11,-1
 1024 0 l 1,0,-1
EndSplineSet
EndChar

StartChar: d
Encoding: 100 100 70
GlifName: d
Width: 4096
Flags: W
LayerCount: 2
Fore
SplineSet
2560 512 m 1,0,-1
 2560 2048 l 1,1,-1
 1536 2048 l 1,2,-1
 1536 512 l 1,3,-1
 2560 512 l 1,0,-1
1024 0 m 1,4,-1
 1024 512 l 1,5,-1
 512 512 l 1,6,-1
 512 2048 l 1,7,-1
 1024 2048 l 1,8,-1
 1024 2560 l 1,9,-1
 2560 2560 l 1,10,-1
 2560 3584 l 1,11,-1
 3584 3584 l 1,12,-1
 3584 0 l 1,13,-1
 1024 0 l 1,4,-1
EndSplineSet
EndChar

StartChar: e
Encoding: 101 101 71
GlifName: e
Width: 4096
Flags: W
LayerCount: 2
Fore
SplineSet
2560 1536 m 1,0,-1
 2560 2048 l 1,1,-1
 1536 2048 l 1,2,-1
 1536 1536 l 1,3,-1
 2560 1536 l 1,0,-1
1024 0 m 1,4,-1
 1024 512 l 1,5,-1
 512 512 l 1,6,-1
 512 2048 l 1,7,-1
 1024 2048 l 1,8,-1
 1024 2560 l 1,9,-1
 3072 2560 l 1,10,-1
 3072 2048 l 1,11,-1
 3584 2048 l 1,12,-1
 3584 1024 l 1,13,-1
 1536 1024 l 1,14,-1
 1536 512 l 1,15,-1
 3584 512 l 1,16,-1
 3584 0 l 1,17,-1
 1024 0 l 1,4,-1
EndSplineSet
EndChar

StartChar: f
Encoding: 102 102 72
GlifName: f
Width: 4096
Flags: W
LayerCount: 2
Fore
SplineSet
1024 0 m 1,0,-1
 1024 1536 l 1,1,-1
 512 1536 l 1,2,-1
 512 2048 l 1,3,-1
 1024 2048 l 1,4,-1
 1024 3072 l 1,5,-1
 1536 3072 l 1,6,-1
 1536 3584 l 1,7,-1
 3072 3584 l 1,8,-1
 3072 3072 l 1,9,-1
 2048 3072 l 1,10,-1
 2048 2048 l 1,11,-1
 2560 2048 l 1,12,-1
 2560 1536 l 1,13,-1
 2048 1536 l 1,14,-1
 2048 0 l 1,15,-1
 1024 0 l 1,0,-1
EndSplineSet
EndChar

StartChar: g
Encoding: 103 103 73
GlifName: g
Width: 4096
Flags: W
LayerCount: 2
Fore
SplineSet
2560 1024 m 1,0,-1
 2560 2048 l 1,1,-1
 1536 2048 l 1,2,-1
 1536 1024 l 1,3,-1
 2560 1024 l 1,0,-1
1024 -512 m 1,4,-1
 1024 0 l 1,5,-1
 2560 0 l 1,6,-1
 2560 512 l 1,7,-1
 1024 512 l 1,8,-1
 1024 1024 l 1,9,-1
 512 1024 l 1,10,-1
 512 2048 l 1,11,-1
 1024 2048 l 1,12,-1
 1024 2560 l 1,13,-1
 3584 2560 l 1,14,-1
 3584 0 l 1,15,-1
 3072 0 l 1,16,-1
 3072 -512 l 1,17,-1
 1024 -512 l 1,4,-1
EndSplineSet
EndChar

StartChar: h
Encoding: 104 104 74
GlifName: h
Width: 4096
Flags: W
LayerCount: 2
Fore
SplineSet
512 0 m 1,0,-1
 512 3584 l 1,1,-1
 1536 3584 l 1,2,-1
 1536 2048 l 1,3,-1
 3072 2048 l 1,4,-1
 3072 1536 l 1,5,-1
 3584 1536 l 1,6,-1
 3584 0 l 1,7,-1
 2560 0 l 1,8,-1
 2560 1536 l 1,9,-1
 1536 1536 l 1,10,-1
 1536 0 l 1,11,-1
 512 0 l 1,0,-1
EndSplineSet
EndChar

StartChar: i
Encoding: 105 105 75
GlifName: i
Width: 4096
Flags: W
LayerCount: 2
Fore
SplineSet
1536 0 m 1,0,-1
 1536 2048 l 1,1,-1
 2560 2048 l 1,2,-1
 2560 0 l 1,3,-1
 1536 0 l 1,0,-1
1536 2560 m 1,4,-1
 1536 3072 l 1,5,-1
 2560 3072 l 1,6,-1
 2560 2560 l 1,7,-1
 1536 2560 l 1,4,-1
EndSplineSet
EndChar

StartChar: j
Encoding: 106 106 76
GlifName: j
Width: 4096
Flags: W
LayerCount: 2
Fore
SplineSet
1024 -512 m 1,0,-1
 1024 0 l 1,1,-1
 512 0 l 1,2,-1
 512 512 l 1,3,-1
 1536 512 l 1,4,-1
 1536 0 l 1,5,-1
 2560 0 l 1,6,-1
 2560 2560 l 1,7,-1
 3584 2560 l 1,8,-1
 3584 0 l 1,9,-1
 3072 0 l 1,10,-1
 3072 -512 l 1,11,-1
 1024 -512 l 1,0,-1
2560 3072 m 1,12,-1
 2560 3584 l 1,13,-1
 3584 3584 l 1,14,-1
 3584 3072 l 1,15,-1
 2560 3072 l 1,12,-1
EndSplineSet
EndChar

StartChar: k
Encoding: 107 107 77
GlifName: k
Width: 4096
Flags: W
LayerCount: 2
Fore
SplineSet
2560 1536 m 1,0,-1
 2560 2048 l 1,1,-1
 3072 2048 l 1,2,-1
 3072 1536 l 1,3,-1
 2560 1536 l 1,0,-1
3072 2048 m 1,4,-1
 3072 2560 l 1,5,-1
 3584 2560 l 1,6,-1
 3584 2048 l 1,7,-1
 3072 2048 l 1,4,-1
512 0 m 1,8,-1
 512 3072 l 1,9,-1
 1536 3072 l 1,10,-1
 1536 1024 l 1,11,-1
 2048 1024 l 1,12,-1
 2048 1536 l 1,13,-1
 2560 1536 l 1,14,-1
 2560 1024 l 1,15,-1
 3072 1024 l 1,16,-1
 3072 512 l 1,17,-1
 3584 512 l 1,18,-1
 3584 0 l 1,19,-1
 2560 0 l 1,20,-1
 2560 512 l 1,21,-1
 1536 512 l 1,22,-1
 1536 0 l 1,23,-1
 512 0 l 1,8,-1
EndSplineSet
EndChar

StartChar: l
Encoding: 108 108 78
GlifName: l
Width: 4096
Flags: W
LayerCount: 2
Fore
SplineSet
1536 0 m 1,0,-1
 1536 3072 l 1,1,-1
 1024 3072 l 1,2,-1
 1024 3584 l 1,3,-1
 2560 3584 l 1,4,-1
 2560 0 l 1,5,-1
 1536 0 l 1,0,-1
EndSplineSet
EndChar

StartChar: m
Encoding: 109 109 79
GlifName: m
Width: 4096
Flags: W
LayerCount: 2
Fore
SplineSet
512 0 m 1,0,-1
 512 2560 l 1,1,-1
 1024 2560 l 1,2,-1
 1024 2048 l 1,3,-1
 1536 2048 l 1,4,-1
 1536 0 l 1,5,-1
 512 0 l 1,0,-1
2048 0 m 1,6,-1
 2048 2048 l 1,7,-1
 1536 2048 l 1,8,-1
 1536 2560 l 1,9,-1
 3584 2560 l 1,10,-1
 3584 2048 l 1,11,-1
 4096 2048 l 1,12,-1
 4096 0 l 1,13,-1
 3072 0 l 1,14,-1
 3072 2048 l 1,15,-1
 2560 2048 l 1,16,-1
 2560 0 l 1,17,-1
 2048 0 l 1,6,-1
EndSplineSet
EndChar

StartChar: n
Encoding: 110 110 80
GlifName: n
Width: 4096
Flags: W
LayerCount: 2
Fore
SplineSet
512 0 m 1,0,-1
 512 2560 l 1,1,-1
 1024 2560 l 1,2,-1
 1024 2048 l 1,3,-1
 1536 2048 l 1,4,-1
 1536 0 l 1,5,-1
 512 0 l 1,0,-1
2560 0 m 1,6,-1
 2560 2048 l 1,7,-1
 1536 2048 l 1,8,-1
 1536 2560 l 1,9,-1
 3072 2560 l 1,10,-1
 3072 2048 l 1,11,-1
 3584 2048 l 1,12,-1
 3584 0 l 1,13,-1
 2560 0 l 1,6,-1
EndSplineSet
EndChar

StartChar: o
Encoding: 111 111 81
GlifName: o
Width: 4096
Flags: W
LayerCount: 2
Fore
SplineSet
2560 512 m 1,0,-1
 2560 2048 l 1,1,-1
 1536 2048 l 1,2,-1
 1536 512 l 1,3,-1
 2560 512 l 1,0,-1
1024 0 m 1,4,-1
 1024 512 l 1,5,-1
 512 512 l 1,6,-1
 512 2048 l 1,7,-1
 1024 2048 l 1,8,-1
 1024 2560 l 1,9,-1
 3072 2560 l 1,10,-1
 3072 2048 l 1,11,-1
 3584 2048 l 1,12,-1
 3584 512 l 1,13,-1
 3072 512 l 1,14,-1
 3072 0 l 1,15,-1
 1024 0 l 1,4,-1
EndSplineSet
EndChar

StartChar: p
Encoding: 112 112 82
GlifName: p
Width: 4096
Flags: W
LayerCount: 2
Fore
SplineSet
2560 1024 m 1,0,-1
 2560 2048 l 1,1,-1
 1536 2048 l 1,2,-1
 1536 1024 l 1,3,-1
 2560 1024 l 1,0,-1
512 -512 m 1,4,-1
 512 2048 l 1,5,-1
 1024 2048 l 1,6,-1
 1024 2560 l 1,7,-1
 3072 2560 l 1,8,-1
 3072 2048 l 1,9,-1
 3584 2048 l 1,10,-1
 3584 1024 l 1,11,-1
 3072 1024 l 1,12,-1
 3072 512 l 1,13,-1
 1536 512 l 1,14,-1
 1536 -512 l 1,15,-1
 512 -512 l 1,4,-1
EndSplineSet
EndChar

StartChar: q
Encoding: 113 113 83
GlifName: q
Width: 4096
Flags: W
LayerCount: 2
Fore
SplineSet
2560 1024 m 1,0,-1
 2560 2048 l 1,1,-1
 1536 2048 l 1,2,-1
 1536 1024 l 1,3,-1
 2560 1024 l 1,0,-1
2560 -512 m 1,4,-1
 2560 512 l 1,5,-1
 1024 512 l 1,6,-1
 1024 1024 l 1,7,-1
 512 1024 l 1,8,-1
 512 2048 l 1,9,-1
 1024 2048 l 1,10,-1
 1024 2560 l 1,11,-1
 3072 2560 l 1,12,-1
 3072 2048 l 1,13,-1
 3584 2048 l 1,14,-1
 3584 0 l 1,15,-1
 4096 0 l 1,16,-1
 4096 -512 l 1,17,-1
 2560 -512 l 1,4,-1
EndSplineSet
EndChar

StartChar: r
Encoding: 114 114 84
GlifName: r
Width: 4096
Flags: W
LayerCount: 2
Fore
SplineSet
512 0 m 1,0,-1
 512 2560 l 1,1,-1
 1536 2560 l 1,2,-1
 1536 2048 l 1,3,-1
 2048 2048 l 1,4,-1
 2048 1536 l 1,5,-1
 1536 1536 l 1,6,-1
 1536 0 l 1,7,-1
 512 0 l 1,0,-1
2048 2048 m 1,8,-1
 2048 2560 l 1,9,-1
 3584 2560 l 1,10,-1
 3584 2048 l 1,11,-1
 2048 2048 l 1,8,-1
EndSplineSet
EndChar

StartChar: s
Encoding: 115 115 85
GlifName: s
Width: 4096
Flags: W
LayerCount: 2
Fore
SplineSet
512 0 m 1,0,-1
 512 512 l 1,1,-1
 2560 512 l 1,2,-1
 2560 1024 l 1,3,-1
 1024 1024 l 1,4,-1
 1024 1536 l 1,5,-1
 3072 1536 l 1,6,-1
 3072 1024 l 1,7,-1
 3584 1024 l 1,8,-1
 3584 512 l 1,9,-1
 3072 512 l 1,10,-1
 3072 0 l 1,11,-1
 512 0 l 1,0,-1
512 1536 m 1,12,-1
 512 2048 l 1,13,-1
 1024 2048 l 1,14,-1
 1024 1536 l 1,15,-1
 512 1536 l 1,12,-1
1024 2048 m 1,16,-1
 1024 2560 l 1,17,-1
 3072 2560 l 1,18,-1
 3072 2048 l 1,19,-1
 1024 2048 l 1,16,-1
EndSplineSet
EndChar

StartChar: t
Encoding: 116 116 86
GlifName: t
Width: 4096
Flags: W
LayerCount: 2
Fore
SplineSet
2048 0 m 1,0,-1
 2048 512 l 1,1,-1
 1536 512 l 1,2,-1
 1536 2048 l 1,3,-1
 512 2048 l 1,4,-1
 512 2560 l 1,5,-1
 1536 2560 l 1,6,-1
 1536 3584 l 1,7,-1
 2560 3584 l 1,8,-1
 2560 2560 l 1,9,-1
 3584 2560 l 1,10,-1
 3584 2048 l 1,11,-1
 2560 2048 l 1,12,-1
 2560 512 l 1,13,-1
 3584 512 l 1,14,-1
 3584 0 l 1,15,-1
 2048 0 l 1,0,-1
EndSplineSet
EndChar

StartChar: u
Encoding: 117 117 87
GlifName: u
Width: 4096
Flags: W
LayerCount: 2
Fore
SplineSet
1024 0 m 1,0,-1
 1024 512 l 1,1,-1
 512 512 l 1,2,-1
 512 2560 l 1,3,-1
 1536 2560 l 1,4,-1
 1536 512 l 1,5,-1
 2560 512 l 1,6,-1
 2560 2560 l 1,7,-1
 3584 2560 l 1,8,-1
 3584 512 l 1,9,-1
 3072 512 l 1,10,-1
 3072 0 l 1,11,-1
 1024 0 l 1,0,-1
EndSplineSet
EndChar

StartChar: v
Encoding: 118 118 88
GlifName: v
Width: 4096
Flags: W
LayerCount: 2
Fore
SplineSet
1536 0 m 1,0,-1
 1536 512 l 1,1,-1
 2560 512 l 1,2,-1
 2560 0 l 1,3,-1
 1536 0 l 1,0,-1
1024 512 m 1,4,-1
 1024 1024 l 1,5,-1
 512 1024 l 1,6,-1
 512 2560 l 1,7,-1
 1536 2560 l 1,8,-1
 1536 512 l 1,9,-1
 1024 512 l 1,4,-1
2560 512 m 1,10,-1
 2560 2560 l 1,11,-1
 3584 2560 l 1,12,-1
 3584 1024 l 1,13,-1
 3072 1024 l 1,14,-1
 3072 512 l 1,15,-1
 2560 512 l 1,10,-1
EndSplineSet
EndChar

StartChar: w
Encoding: 119 119 89
GlifName: w
Width: 4096
Flags: W
LayerCount: 2
Fore
SplineSet
2048 512 m 1,0,-1
 2048 2048 l 1,1,-1
 2560 2048 l 1,2,-1
 2560 512 l 1,3,-1
 2048 512 l 1,0,-1
1024 0 m 1,4,-1
 1024 512 l 1,5,-1
 512 512 l 1,6,-1
 512 2560 l 1,7,-1
 1536 2560 l 1,8,-1
 1536 512 l 1,9,-1
 2048 512 l 1,10,-1
 2048 0 l 1,11,-1
 1024 0 l 1,4,-1
2560 0 m 1,12,-1
 2560 512 l 1,13,-1
 3072 512 l 1,14,-1
 3072 2560 l 1,15,-1
 4096 2560 l 1,16,-1
 4096 512 l 1,17,-1
 3584 512 l 1,18,-1
 3584 0 l 1,19,-1
 2560 0 l 1,12,-1
EndSplineSet
EndChar

StartChar: x
Encoding: 120 120 90
GlifName: x
Width: 4096
Flags: W
LayerCount: 2
Fore
SplineSet
512 0 m 1,0,-1
 512 512 l 1,1,-1
 1024 512 l 1,2,-1
 1024 1024 l 1,3,-1
 1536 1024 l 1,4,-1
 1536 1536 l 1,5,-1
 1024 1536 l 1,6,-1
 1024 2048 l 1,7,-1
 512 2048 l 1,8,-1
 512 2560 l 1,9,-1
 1536 2560 l 1,10,-1
 1536 2048 l 1,11,-1
 2048 2048 l 1,12,-1
 2048 1536 l 1,13,-1
 2560 1536 l 1,14,-1
 2560 2048 l 1,15,-1
 3072 2048 l 1,16,-1
 3072 2560 l 1,17,-1
 4096 2560 l 1,18,-1
 4096 2048 l 1,19,-1
 3584 2048 l 1,20,-1
 3584 1536 l 1,21,-1
 3072 1536 l 1,22,-1
 3072 1024 l 1,23,-1
 3584 1024 l 1,24,-1
 3584 512 l 1,25,-1
 4096 512 l 1,26,-1
 4096 0 l 1,27,-1
 3072 0 l 1,28,-1
 3072 512 l 1,29,-1
 2560 512 l 1,30,-1
 2560 1024 l 1,31,-1
 2048 1024 l 1,32,-1
 2048 512 l 1,33,-1
 1536 512 l 1,34,-1
 1536 0 l 1,35,-1
 512 0 l 1,0,-1
EndSplineSet
EndChar

StartChar: y
Encoding: 121 121 91
GlifName: y
Width: 4096
Flags: W
LayerCount: 2
Fore
SplineSet
1536 1024 m 1,0,-1
 1536 1536 l 1,1,-1
 1024 1536 l 1,2,-1
 1024 2560 l 1,3,-1
 2048 2560 l 1,4,-1
 2048 1024 l 1,5,-1
 1536 1024 l 1,0,-1
1024 -512 m 1,6,-1
 1024 0 l 1,7,-1
 1536 0 l 1,8,-1
 1536 512 l 1,9,-1
 2048 512 l 1,10,-1
 2048 1024 l 1,11,-1
 2560 1024 l 1,12,-1
 2560 1536 l 1,13,-1
 3072 1536 l 1,14,-1
 3072 2560 l 1,15,-1
 4096 2560 l 1,16,-1
 4096 1536 l 1,17,-1
 3584 1536 l 1,18,-1
 3584 1024 l 1,19,-1
 3072 1024 l 1,20,-1
 3072 512 l 1,21,-1
 2560 512 l 1,22,-1
 2560 0 l 1,23,-1
 2048 0 l 1,24,-1
 2048 -512 l 1,25,-1
 1024 -512 l 1,6,-1
EndSplineSet
EndChar

StartChar: z
Encoding: 122 122 92
GlifName: z
Width: 4096
Flags: W
LayerCount: 2
Fore
SplineSet
512 0 m 1,0,-1
 512 512 l 1,1,-1
 1024 512 l 1,2,-1
 1024 1024 l 1,3,-1
 1536 1024 l 1,4,-1
 1536 1536 l 1,5,-1
 2048 1536 l 1,6,-1
 2048 2048 l 1,7,-1
 512 2048 l 1,8,-1
 512 2560 l 1,9,-1
 3584 2560 l 1,10,-1
 3584 2048 l 1,11,-1
 3072 2048 l 1,12,-1
 3072 1536 l 1,13,-1
 2560 1536 l 1,14,-1
 2560 1024 l 1,15,-1
 2048 1024 l 1,16,-1
 2048 512 l 1,17,-1
 3584 512 l 1,18,-1
 3584 0 l 1,19,-1
 512 0 l 1,0,-1
EndSplineSet
EndChar

StartChar: braceleft
Encoding: 123 123 93
GlifName: braceleft
Width: 4096
Flags: W
LayerCount: 2
Fore
SplineSet
1024 0 m 1,0,-1
 1024 1536 l 1,1,-1
 1536 1536 l 1,2,-1
 1536 512 l 1,3,-1
 2048 512 l 1,4,-1
 2048 0 l 1,5,-1
 1024 0 l 1,0,-1
512 1536 m 1,6,-1
 512 2048 l 1,7,-1
 1024 2048 l 1,8,-1
 1024 1536 l 1,9,-1
 512 1536 l 1,6,-1
1024 2048 m 1,10,-1
 1024 3584 l 1,11,-1
 2048 3584 l 1,12,-1
 2048 3072 l 1,13,-1
 1536 3072 l 1,14,-1
 1536 2048 l 1,15,-1
 1024 2048 l 1,10,-1
EndSplineSet
EndChar

StartChar: bar
Encoding: 124 124 94
GlifName: bar
Width: 4096
Flags: W
LayerCount: 2
Fore
SplineSet
1536 0 m 1,0,-1
 1536 3584 l 1,1,-1
 2048 3584 l 1,2,-1
 2048 0 l 1,3,-1
 1536 0 l 1,0,-1
EndSplineSet
EndChar

StartChar: braceright
Encoding: 125 125 95
GlifName: braceright
Width: 4096
Flags: W
LayerCount: 2
Fore
SplineSet
1536 0 m 1,0,-1
 1536 512 l 1,1,-1
 2048 512 l 1,2,-1
 2048 1536 l 1,3,-1
 2560 1536 l 1,4,-1
 2560 0 l 1,5,-1
 1536 0 l 1,0,-1
2560 1536 m 1,6,-1
 2560 2048 l 1,7,-1
 3072 2048 l 1,8,-1
 3072 1536 l 1,9,-1
 2560 1536 l 1,6,-1
2048 2048 m 1,10,-1
 2048 3072 l 1,11,-1
 1536 3072 l 1,12,-1
 1536 3584 l 1,13,-1
 2560 3584 l 1,14,-1
 2560 2048 l 1,15,-1
 2048 2048 l 1,10,-1
EndSplineSet
EndChar

StartChar: asciitilde
Encoding: 126 126 96
GlifName: asciitilde
Width: 4096
Flags: W
LayerCount: 2
Fore
SplineSet
0 2048 m 1,0,-1
 0 2560 l 1,1,-1
 512 2560 l 1,2,-1
 512 3072 l 1,3,-1
 2048 3072 l 1,4,-1
 2048 2560 l 1,5,-1
 2560 2560 l 1,6,-1
 2560 3072 l 1,7,-1
 3584 3072 l 1,8,-1
 3584 2560 l 1,9,-1
 3072 2560 l 1,10,-1
 3072 2048 l 1,11,-1
 1536 2048 l 1,12,-1
 1536 2560 l 1,13,-1
 1024 2560 l 1,14,-1
 1024 2048 l 1,15,-1
 0 2048 l 1,0,-1
EndSplineSet
EndChar

StartChar: exclamdown
Encoding: 161 161 97
GlifName: exclamdown
Width: 4096
Flags: W
LayerCount: 2
Fore
SplineSet
1536 0 m 1,0,-1
 1536 512 l 1,1,-1
 1024 512 l 1,2,-1
 1024 1024 l 1,3,-1
 512 1024 l 1,4,-1
 512 1536 l 1,5,-1
 0 1536 l 1,6,-1
 0 3072 l 1,7,-1
 512 3072 l 1,8,-1
 512 3584 l 1,9,-1
 1536 3584 l 1,10,-1
 1536 3072 l 1,11,-1
 2048 3072 l 1,12,-1
 2048 3584 l 1,13,-1
 3072 3584 l 1,14,-1
 3072 3072 l 1,15,-1
 3584 3072 l 1,16,-1
 3584 1536 l 1,17,-1
 3072 1536 l 1,18,-1
 3072 1024 l 1,19,-1
 2560 1024 l 1,20,-1
 2560 512 l 1,21,-1
 2048 512 l 1,22,-1
 2048 0 l 1,23,-1
 1536 0 l 1,0,-1
EndSplineSet
EndChar

StartChar: cent
Encoding: 162 162 98
GlifName: cent
Width: 4096
Flags: W
LayerCount: 2
Fore
SplineSet
2048 0 m 1,0,-1
 2048 512 l 1,1,-1
 2560 512 l 1,2,-1
 2560 1536 l 1,3,-1
 3072 1536 l 1,4,-1
 3072 0 l 1,5,-1
 2048 0 l 1,0,-1
EndSplineSet
EndChar

StartChar: sterling
Encoding: 163 163 99
GlifName: sterling
Width: 4096
Flags: W
LayerCount: 2
Fore
SplineSet
1536 -512 m 1,0,-1
 1536 0 l 1,1,-1
 1024 0 l 1,2,-1
 1024 512 l 1,3,-1
 1536 512 l 1,4,-1
 1536 1024 l 1,5,-1
 1024 1024 l 1,6,-1
 1024 1536 l 1,7,-1
 3072 1536 l 1,8,-1
 3072 1024 l 1,9,-1
 2560 1024 l 1,10,-1
 2560 512 l 1,11,-1
 3072 512 l 1,12,-1
 3072 0 l 1,13,-1
 2560 0 l 1,14,-1
 2560 -512 l 1,15,-1
 1536 -512 l 1,0,-1
512 1536 m 1,16,-1
 512 3072 l 1,17,-1
 1024 3072 l 1,18,-1
 1024 1536 l 1,19,-1
 512 1536 l 1,16,-1
3072 1536 m 1,20,-1
 3072 3072 l 1,21,-1
 3584 3072 l 1,22,-1
 3584 1536 l 1,23,-1
 3072 1536 l 1,20,-1
1024 3072 m 1,24,-1
 1024 3584 l 1,25,-1
 3072 3584 l 1,26,-1
 3072 3072 l 1,27,-1
 1024 3072 l 1,24,-1
EndSplineSet
EndChar

StartChar: currency
Encoding: 164 164 100
GlifName: currency
Width: 4096
Flags: W
LayerCount: 2
Fore
SplineSet
512 512 m 1,0,-1
 512 1024 l 1,1,-1
 1024 1024 l 1,2,-1
 1024 512 l 1,3,-1
 512 512 l 1,0,-1
2560 512 m 1,4,-1
 2560 1024 l 1,5,-1
 3072 1024 l 1,6,-1
 3072 512 l 1,7,-1
 2560 512 l 1,4,-1
1024 1024 m 1,8,-1
 1024 1536 l 1,9,-1
 2560 1536 l 1,10,-1
 2560 1024 l 1,11,-1
 1024 1024 l 1,8,-1
512 1536 m 1,12,-1
 512 2560 l 1,13,-1
 1024 2560 l 1,14,-1
 1024 1536 l 1,15,-1
 512 1536 l 1,12,-1
2560 1536 m 1,16,-1
 2560 2560 l 1,17,-1
 3072 2560 l 1,18,-1
 3072 1536 l 1,19,-1
 2560 1536 l 1,16,-1
1024 2560 m 1,20,-1
 1024 3072 l 1,21,-1
 2560 3072 l 1,22,-1
 2560 2560 l 1,23,-1
 1024 2560 l 1,20,-1
512 3072 m 1,24,-1
 512 3584 l 1,25,-1
 1024 3584 l 1,26,-1
 1024 3072 l 1,27,-1
 512 3072 l 1,24,-1
2560 3072 m 1,28,-1
 2560 3584 l 1,29,-1
 3072 3584 l 1,30,-1
 3072 3072 l 1,31,-1
 2560 3072 l 1,28,-1
EndSplineSet
EndChar

StartChar: yen
Encoding: 165 165 101
GlifName: yen
Width: 4096
Flags: W
LayerCount: 2
Fore
SplineSet
1024 -512 m 1,0,-1
 1024 0 l 1,1,-1
 3072 0 l 1,2,-1
 3072 -512 l 1,3,-1
 1024 -512 l 1,0,-1
512 0 m 1,4,-1
 512 1536 l 1,5,-1
 1024 1536 l 1,6,-1
 1024 0 l 1,7,-1
 512 0 l 1,4,-1
3072 0 m 1,8,-1
 3072 1536 l 1,9,-1
 3584 1536 l 1,10,-1
 3584 0 l 1,11,-1
 3072 0 l 1,8,-1
1024 1536 m 1,12,-1
 1024 2048 l 1,13,-1
 1536 2048 l 1,14,-1
 1536 2560 l 1,15,-1
 1024 2560 l 1,16,-1
 1024 3072 l 1,17,-1
 1536 3072 l 1,18,-1
 1536 3584 l 1,19,-1
 2560 3584 l 1,20,-1
 2560 3072 l 1,21,-1
 3072 3072 l 1,22,-1
 3072 2560 l 1,23,-1
 2560 2560 l 1,24,-1
 2560 2048 l 1,25,-1
 3072 2048 l 1,26,-1
 3072 1536 l 1,27,-1
 1024 1536 l 1,12,-1
EndSplineSet
EndChar

StartChar: brokenbar
Encoding: 166 166 102
GlifName: brokenbar
Width: 4096
Flags: W
LayerCount: 2
Fore
SplineSet
2048 0 m 1,0,-1
 2048 1536 l 1,1,-1
 2560 1536 l 1,2,-1
 2560 0 l 1,3,-1
 2048 0 l 1,0,-1
2048 2048 m 1,4,-1
 2048 3584 l 1,5,-1
 2560 3584 l 1,6,-1
 2560 2048 l 1,7,-1
 2048 2048 l 1,4,-1
EndSplineSet
EndChar

StartChar: section
Encoding: 167 167 103
GlifName: section
Width: 4096
Flags: W
LayerCount: 2
Fore
SplineSet
1024 0 m 1,0,-1
 1024 512 l 1,1,-1
 2560 512 l 1,2,-1
 2560 0 l 1,3,-1
 1024 0 l 1,0,-1
2560 1536 m 1,4,-1
 2560 2048 l 1,5,-1
 1536 2048 l 1,6,-1
 1536 1536 l 1,7,-1
 2560 1536 l 1,4,-1
2560 512 m 1,8,-1
 2560 1024 l 1,9,-1
 1024 1024 l 1,10,-1
 1024 3072 l 1,11,-1
 1536 3072 l 1,12,-1
 1536 2560 l 1,13,-1
 3072 2560 l 1,14,-1
 3072 512 l 1,15,-1
 2560 512 l 1,8,-1
1536 3072 m 1,16,-1
 1536 3584 l 1,17,-1
 3072 3584 l 1,18,-1
 3072 3072 l 1,19,-1
 1536 3072 l 1,16,-1
EndSplineSet
EndChar

StartChar: copyright
Encoding: 169 169 104
GlifName: copyright
Width: 4096
Flags: W
LayerCount: 2
Fore
SplineSet
512 0 m 1,0,-1
 512 512 l 1,1,-1
 3072 512 l 1,2,-1
 3072 0 l 1,3,-1
 512 0 l 1,0,-1
1024 1024 m 1,4,-1
 1024 2560 l 1,5,-1
 2560 2560 l 1,6,-1
 2560 2048 l 1,7,-1
 1536 2048 l 1,8,-1
 1536 1536 l 1,9,-1
 2560 1536 l 1,10,-1
 2560 1024 l 1,11,-1
 1024 1024 l 1,4,-1
0 512 m 1,12,-1
 0 3072 l 1,13,-1
 512 3072 l 1,14,-1
 512 512 l 1,15,-1
 0 512 l 1,12,-1
3072 512 m 1,16,-1
 3072 3072 l 1,17,-1
 3584 3072 l 1,18,-1
 3584 512 l 1,19,-1
 3072 512 l 1,16,-1
512 3072 m 1,20,-1
 512 3584 l 1,21,-1
 3072 3584 l 1,22,-1
 3072 3072 l 1,23,-1
 512 3072 l 1,20,-1
EndSplineSet
EndChar

StartChar: guillemotleft
Encoding: 171 171 105
GlifName: guillemotleft
Width: 4096
Flags: W
LayerCount: 2
Fore
SplineSet
1536 0 m 1,0,-1
 1536 512 l 1,1,-1
 2048 512 l 1,2,-1
 2048 0 l 1,3,-1
 1536 0 l 1,0,-1
3072 0 m 1,4,-1
 3072 512 l 1,5,-1
 3584 512 l 1,6,-1
 3584 0 l 1,7,-1
 3072 0 l 1,4,-1
1024 512 m 1,8,-1
 1024 1024 l 1,9,-1
 1536 1024 l 1,10,-1
 1536 512 l 1,11,-1
 1024 512 l 1,8,-1
2560 512 m 1,12,-1
 2560 1024 l 1,13,-1
 3072 1024 l 1,14,-1
 3072 512 l 1,15,-1
 2560 512 l 1,12,-1
512 1024 m 1,16,-1
 512 1536 l 1,17,-1
 1024 1536 l 1,18,-1
 1024 1024 l 1,19,-1
 512 1024 l 1,16,-1
2048 1024 m 1,20,-1
 2048 1536 l 1,21,-1
 2560 1536 l 1,22,-1
 2560 1024 l 1,23,-1
 2048 1024 l 1,20,-1
1024 1536 m 1,24,-1
 1024 2048 l 1,25,-1
 1536 2048 l 1,26,-1
 1536 1536 l 1,27,-1
 1024 1536 l 1,24,-1
2560 1536 m 1,28,-1
 2560 2048 l 1,29,-1
 3072 2048 l 1,30,-1
 3072 1536 l 1,31,-1
 2560 1536 l 1,28,-1
1536 2048 m 1,32,-1
 1536 2560 l 1,33,-1
 2048 2560 l 1,34,-1
 2048 2048 l 1,35,-1
 1536 2048 l 1,32,-1
3072 2048 m 1,36,-1
 3072 2560 l 1,37,-1
 3584 2560 l 1,38,-1
 3584 2048 l 1,39,-1
 3072 2048 l 1,36,-1
EndSplineSet
EndChar

StartChar: degree
Encoding: 176 176 106
GlifName: degree
Width: 4096
Flags: W
LayerCount: 2
Fore
SplineSet
1024 1536 m 1,0,-1
 1024 2048 l 1,1,-1
 2048 2048 l 1,2,-1
 2048 1536 l 1,3,-1
 1024 1536 l 1,0,-1
512 2048 m 1,4,-1
 512 3072 l 1,5,-1
 1024 3072 l 1,6,-1
 1024 2048 l 1,7,-1
 512 2048 l 1,4,-1
2048 2048 m 1,8,-1
 2048 3072 l 1,9,-1
 2560 3072 l 1,10,-1
 2560 2048 l 1,11,-1
 2048 2048 l 1,8,-1
1024 3072 m 1,12,-1
 1024 3584 l 1,13,-1
 2048 3584 l 1,14,-1
 2048 3072 l 1,15,-1
 1024 3072 l 1,12,-1
EndSplineSet
EndChar

StartChar: plusminus
Encoding: 177 177 107
GlifName: plusminus
Width: 4096
Flags: W
LayerCount: 2
Fore
SplineSet
1536 0 m 1,0,-1
 1536 512 l 1,1,-1
 2048 512 l 1,2,-1
 2048 0 l 1,3,-1
 1536 0 l 1,0,-1
1024 512 m 1,4,-1
 1024 1024 l 1,5,-1
 1536 1024 l 1,6,-1
 1536 512 l 1,7,-1
 1024 512 l 1,4,-1
2048 512 m 1,8,-1
 2048 1024 l 1,9,-1
 2560 1024 l 1,10,-1
 2560 512 l 1,11,-1
 2048 512 l 1,8,-1
512 1024 m 1,12,-1
 512 1536 l 1,13,-1
 1024 1536 l 1,14,-1
 1024 1024 l 1,15,-1
 512 1024 l 1,12,-1
2560 1024 m 1,16,-1
 2560 1536 l 1,17,-1
 3072 1536 l 1,18,-1
 3072 1024 l 1,19,-1
 2560 1024 l 1,16,-1
0 1536 m 1,20,-1
 0 3072 l 1,21,-1
 512 3072 l 1,22,-1
 512 1536 l 1,23,-1
 0 1536 l 1,20,-1
1536 2560 m 1,24,-1
 1536 3072 l 1,25,-1
 2048 3072 l 1,26,-1
 2048 2560 l 1,27,-1
 1536 2560 l 1,24,-1
3072 1536 m 1,28,-1
 3072 3072 l 1,29,-1
 3584 3072 l 1,30,-1
 3584 1536 l 1,31,-1
 3072 1536 l 1,28,-1
512 3072 m 1,32,-1
 512 3584 l 1,33,-1
 1536 3584 l 1,34,-1
 1536 3072 l 1,35,-1
 512 3072 l 1,32,-1
2048 3072 m 1,36,-1
 2048 3584 l 1,37,-1
 3072 3584 l 1,38,-1
 3072 3072 l 1,39,-1
 2048 3072 l 1,36,-1
EndSplineSet
EndChar

StartChar: periodcentered
Encoding: 183 183 108
GlifName: periodcentered
Width: 4096
Flags: W
LayerCount: 2
Fore
SplineSet
1536 512 m 1,0,-1
 1536 1024 l 1,1,-1
 1024 1024 l 1,2,-1
 1024 1536 l 1,3,-1
 512 1536 l 1,4,-1
 512 2048 l 1,5,-1
 0 2048 l 1,6,-1
 0 2560 l 1,7,-1
 512 2560 l 1,8,-1
 512 3072 l 1,9,-1
 1536 3072 l 1,10,-1
 1536 2560 l 1,11,-1
 2048 2560 l 1,12,-1
 2048 3072 l 1,13,-1
 3072 3072 l 1,14,-1
 3072 2560 l 1,15,-1
 3584 2560 l 1,16,-1
 3584 2048 l 1,17,-1
 3072 2048 l 1,18,-1
 3072 1536 l 1,19,-1
 2560 1536 l 1,20,-1
 2560 1024 l 1,21,-1
 2048 1024 l 1,22,-1
 2048 512 l 1,23,-1
 1536 512 l 1,0,-1
EndSplineSet
EndChar

StartChar: cedilla
Encoding: 184 184 109
GlifName: cedilla
Width: 4096
Flags: W
LayerCount: 2
Fore
SplineSet
1536 0 m 1,0,-1
 1536 512 l 1,1,-1
 1024 512 l 1,2,-1
 1024 1024 l 1,3,-1
 512 1024 l 1,4,-1
 512 1536 l 1,5,-1
 0 1536 l 1,6,-1
 0 2048 l 1,7,-1
 512 2048 l 1,8,-1
 512 2560 l 1,9,-1
 1024 2560 l 1,10,-1
 1024 3072 l 1,11,-1
 1536 3072 l 1,12,-1
 1536 3584 l 1,13,-1
 2048 3584 l 1,14,-1
 2048 3072 l 1,15,-1
 2560 3072 l 1,16,-1
 2560 2560 l 1,17,-1
 3072 2560 l 1,18,-1
 3072 2048 l 1,19,-1
 3584 2048 l 1,20,-1
 3584 1536 l 1,21,-1
 3072 1536 l 1,22,-1
 3072 1024 l 1,23,-1
 2560 1024 l 1,24,-1
 2560 512 l 1,25,-1
 2048 512 l 1,26,-1
 2048 0 l 1,27,-1
 1536 0 l 1,0,-1
EndSplineSet
EndChar

StartChar: uni00B9
Encoding: 185 185 110
GlifName: uni00B_9
Width: 4096
Flags: W
LayerCount: 2
Fore
SplineSet
1024 0 m 1,0,-1
 1024 512 l 1,1,-1
 1536 512 l 1,2,-1
 1536 1536 l 1,3,-1
 1024 1536 l 1,4,-1
 1024 1024 l 1,5,-1
 512 1024 l 1,6,-1
 512 1536 l 1,7,-1
 0 1536 l 1,8,-1
 0 2048 l 1,9,-1
 512 2048 l 1,10,-1
 512 2560 l 1,11,-1
 1024 2560 l 1,12,-1
 1024 3072 l 1,13,-1
 1536 3072 l 1,14,-1
 1536 3584 l 1,15,-1
 2048 3584 l 1,16,-1
 2048 3072 l 1,17,-1
 2560 3072 l 1,18,-1
 2560 2560 l 1,19,-1
 3072 2560 l 1,20,-1
 3072 2048 l 1,21,-1
 3584 2048 l 1,22,-1
 3584 1536 l 1,23,-1
 3072 1536 l 1,24,-1
 3072 1024 l 1,25,-1
 2560 1024 l 1,26,-1
 2560 1536 l 1,27,-1
 2048 1536 l 1,28,-1
 2048 512 l 1,29,-1
 2560 512 l 1,30,-1
 2560 0 l 1,31,-1
 1024 0 l 1,0,-1
EndSplineSet
EndChar

StartChar: ordmasculine
Encoding: 186 186 111
GlifName: ordmasculine
Width: 4096
Flags: W
LayerCount: 2
Fore
SplineSet
1024 0 m 1,0,-1
 1024 512 l 1,1,-1
 1536 512 l 1,2,-1
 1536 1536 l 1,3,-1
 1024 1536 l 1,4,-1
 1024 1024 l 1,5,-1
 0 1024 l 1,6,-1
 0 2048 l 1,7,-1
 1536 2048 l 1,8,-1
 1536 2560 l 1,9,-1
 1024 2560 l 1,10,-1
 1024 3584 l 1,11,-1
 2560 3584 l 1,12,-1
 2560 2560 l 1,13,-1
 2048 2560 l 1,14,-1
 2048 2048 l 1,15,-1
 3584 2048 l 1,16,-1
 3584 1024 l 1,17,-1
 2560 1024 l 1,18,-1
 2560 1536 l 1,19,-1
 2048 1536 l 1,20,-1
 2048 512 l 1,21,-1
 2560 512 l 1,22,-1
 2560 0 l 1,23,-1
 1024 0 l 1,0,-1
EndSplineSet
EndChar

StartChar: guillemotright
Encoding: 187 187 112
GlifName: guillemotright
Width: 4096
Flags: W
LayerCount: 2
Fore
SplineSet
512 0 m 1,0,-1
 512 512 l 1,1,-1
 1024 512 l 1,2,-1
 1024 0 l 1,3,-1
 512 0 l 1,0,-1
2048 0 m 1,4,-1
 2048 512 l 1,5,-1
 2560 512 l 1,6,-1
 2560 0 l 1,7,-1
 2048 0 l 1,4,-1
1024 512 m 1,8,-1
 1024 1024 l 1,9,-1
 1536 1024 l 1,10,-1
 1536 512 l 1,11,-1
 1024 512 l 1,8,-1
2560 512 m 1,12,-1
 2560 1024 l 1,13,-1
 3072 1024 l 1,14,-1
 3072 512 l 1,15,-1
 2560 512 l 1,12,-1
1536 1024 m 1,16,-1
 1536 1536 l 1,17,-1
 2048 1536 l 1,18,-1
 2048 1024 l 1,19,-1
 1536 1024 l 1,16,-1
3072 1024 m 1,20,-1
 3072 1536 l 1,21,-1
 3584 1536 l 1,22,-1
 3584 1024 l 1,23,-1
 3072 1024 l 1,20,-1
1024 1536 m 1,24,-1
 1024 2048 l 1,25,-1
 1536 2048 l 1,26,-1
 1536 1536 l 1,27,-1
 1024 1536 l 1,24,-1
2560 1536 m 1,28,-1
 2560 2048 l 1,29,-1
 3072 2048 l 1,30,-1
 3072 1536 l 1,31,-1
 2560 1536 l 1,28,-1
512 2048 m 1,32,-1
 512 2560 l 1,33,-1
 1024 2560 l 1,34,-1
 1024 2048 l 1,35,-1
 512 2048 l 1,32,-1
2048 2048 m 1,36,-1
 2048 2560 l 1,37,-1
 2560 2560 l 1,38,-1
 2560 2048 l 1,39,-1
 2048 2048 l 1,36,-1
EndSplineSet
EndChar

StartChar: onequarter
Encoding: 188 188 113
GlifName: onequarter
Width: 4096
Flags: W
LayerCount: 2
Fore
SplineSet
512 512 m 1,0,-1
 512 1024 l 1,1,-1
 1024 1024 l 1,2,-1
 1024 512 l 1,3,-1
 512 512 l 1,0,-1
2560 512 m 1,4,-1
 2560 1024 l 1,5,-1
 3072 1024 l 1,6,-1
 3072 512 l 1,7,-1
 2560 512 l 1,4,-1
1024 1024 m 1,8,-1
 1024 2048 l 1,9,-1
 512 2048 l 1,10,-1
 512 2560 l 1,11,-1
 1536 2560 l 1,12,-1
 1536 3584 l 1,13,-1
 2048 3584 l 1,14,-1
 2048 2560 l 1,15,-1
 3072 2560 l 1,16,-1
 3072 2048 l 1,17,-1
 2560 2048 l 1,18,-1
 2560 1024 l 1,19,-1
 1024 1024 l 1,8,-1
EndSplineSet
EndChar

StartChar: onehalf
Encoding: 189 189 114
GlifName: onehalf
Width: 4096
Flags: W
LayerCount: 2
Fore
SplineSet
512 1024 m 1,0,-1
 512 1536 l 1,1,-1
 1024 1536 l 1,2,-1
 1024 1024 l 1,3,-1
 512 1024 l 1,0,-1
512 2048 m 1,4,-1
 512 2560 l 1,5,-1
 1024 2560 l 1,6,-1
 1024 2048 l 1,7,-1
 512 2048 l 1,4,-1
1536 0 m 1,8,-1
 1536 512 l 1,9,-1
 1024 512 l 1,10,-1
 1024 1024 l 1,11,-1
 2048 1024 l 1,12,-1
 2048 1536 l 1,13,-1
 2560 1536 l 1,14,-1
 2560 2048 l 1,15,-1
 2048 2048 l 1,16,-1
 2048 2560 l 1,17,-1
 1024 2560 l 1,18,-1
 1024 3072 l 1,19,-1
 1536 3072 l 1,20,-1
 1536 3584 l 1,21,-1
 2560 3584 l 1,22,-1
 2560 3072 l 1,23,-1
 3072 3072 l 1,24,-1
 3072 2560 l 1,25,-1
 3584 2560 l 1,26,-1
 3584 1024 l 1,27,-1
 3072 1024 l 1,28,-1
 3072 512 l 1,29,-1
 2560 512 l 1,30,-1
 2560 0 l 1,31,-1
 1536 0 l 1,8,-1
EndSplineSet
EndChar

StartChar: questiondown
Encoding: 191 191 115
GlifName: questiondown
Width: 4096
Flags: W
LayerCount: 2
Fore
SplineSet
3072 512 m 1,0,-1
 3072 1024 l 1,1,-1
 3584 1024 l 1,2,-1
 3584 512 l 1,3,-1
 3072 512 l 1,0,-1
512 -512 m 1,4,-1
 512 512 l 1,5,-1
 1024 512 l 1,6,-1
 1024 1024 l 1,7,-1
 2048 1024 l 1,8,-1
 2048 3584 l 1,9,-1
 3072 3584 l 1,10,-1
 3072 3072 l 1,11,-1
 3584 3072 l 1,12,-1
 3584 2560 l 1,13,-1
 4096 2560 l 1,14,-1
 4096 1024 l 1,15,-1
 3584 1024 l 1,16,-1
 3584 2048 l 1,17,-1
 3072 2048 l 1,18,-1
 3072 2560 l 1,19,-1
 2560 2560 l 1,20,-1
 2560 0 l 1,21,-1
 2048 0 l 1,22,-1
 2048 -512 l 1,23,-1
 512 -512 l 1,4,-1
EndSplineSet
EndChar

StartChar: multiply
Encoding: 215 215 116
GlifName: multiply
Width: 4096
Flags: W
LayerCount: 2
Fore
SplineSet
512 512 m 1,0,-1
 512 1024 l 1,1,-1
 1024 1024 l 1,2,-1
 1024 512 l 1,3,-1
 512 512 l 1,0,-1
2560 512 m 1,4,-1
 2560 1024 l 1,5,-1
 3072 1024 l 1,6,-1
 3072 512 l 1,7,-1
 2560 512 l 1,4,-1
1024 1024 m 1,8,-1
 1024 1536 l 1,9,-1
 1536 1536 l 1,10,-1
 1536 1024 l 1,11,-1
 1024 1024 l 1,8,-1
2048 1024 m 1,12,-1
 2048 1536 l 1,13,-1
 2560 1536 l 1,14,-1
 2560 1024 l 1,15,-1
 2048 1024 l 1,12,-1
1536 1536 m 1,16,-1
 1536 2048 l 1,17,-1
 2048 2048 l 1,18,-1
 2048 1536 l 1,19,-1
 1536 1536 l 1,16,-1
1024 2048 m 1,20,-1
 1024 2560 l 1,21,-1
 1536 2560 l 1,22,-1
 1536 2048 l 1,23,-1
 1024 2048 l 1,20,-1
2048 2048 m 1,24,-1
 2048 2560 l 1,25,-1
 2560 2560 l 1,26,-1
 2560 2048 l 1,27,-1
 2048 2048 l 1,24,-1
512 2560 m 1,28,-1
 512 3072 l 1,29,-1
 1024 3072 l 1,30,-1
 1024 2560 l 1,31,-1
 512 2560 l 1,28,-1
2560 2560 m 1,32,-1
 2560 3072 l 1,33,-1
 3072 3072 l 1,34,-1
 3072 2560 l 1,35,-1
 2560 2560 l 1,32,-1
EndSplineSet
EndChar

StartChar: divide
Encoding: 247 247 117
GlifName: divide
Width: 4096
Flags: W
LayerCount: 2
Fore
SplineSet
1536 512 m 1,0,-1
 1536 1024 l 1,1,-1
 2048 1024 l 1,2,-1
 2048 512 l 1,3,-1
 1536 512 l 1,0,-1
512 1536 m 1,4,-1
 512 2048 l 1,5,-1
 3072 2048 l 1,6,-1
 3072 1536 l 1,7,-1
 512 1536 l 1,4,-1
1536 2560 m 1,8,-1
 1536 3072 l 1,9,-1
 2048 3072 l 1,10,-1
 2048 2560 l 1,11,-1
 1536 2560 l 1,8,-1
EndSplineSet
EndChar

StartChar: quoteleft
Encoding: 8216 8216 118
GlifName: quoteleft
Width: 4096
Flags: W
LayerCount: 2
Fore
SplineSet
2048 2048 m 1,0,-1
 2048 3072 l 1,1,-1
 2560 3072 l 1,2,-1
 2560 3584 l 1,3,-1
 3072 3584 l 1,4,-1
 3072 2048 l 1,5,-1
 2048 2048 l 1,0,-1
EndSplineSet
EndChar

StartChar: quoteright
Encoding: 8217 8217 119
GlifName: quoteright
Width: 4096
Flags: W
LayerCount: 2
Fore
SplineSet
1024 2048 m 1,0,-1
 1024 3584 l 1,1,-1
 2048 3584 l 1,2,-1
 2048 2560 l 1,3,-1
 1536 2560 l 1,4,-1
 1536 2048 l 1,5,-1
 1024 2048 l 1,0,-1
EndSplineSet
EndChar

StartChar: quotedblleft
Encoding: 8220 8220 120
GlifName: quotedblleft
Width: 4096
Flags: W
LayerCount: 2
Fore
SplineSet
512 2048 m 1,0,-1
 512 3072 l 1,1,-1
 1024 3072 l 1,2,-1
 1024 3584 l 1,3,-1
 1536 3584 l 1,4,-1
 1536 2048 l 1,5,-1
 512 2048 l 1,0,-1
2048 2048 m 1,6,-1
 2048 3072 l 1,7,-1
 2560 3072 l 1,8,-1
 2560 3584 l 1,9,-1
 3072 3584 l 1,10,-1
 3072 2048 l 1,11,-1
 2048 2048 l 1,6,-1
EndSplineSet
EndChar

StartChar: quotedblright
Encoding: 8221 8221 121
GlifName: quotedblright
Width: 4096
Flags: W
LayerCount: 2
Fore
SplineSet
1024 2048 m 1,0,-1
 1024 3584 l 1,1,-1
 2048 3584 l 1,2,-1
 2048 2560 l 1,3,-1
 1536 2560 l 1,4,-1
 1536 2048 l 1,5,-1
 1024 2048 l 1,0,-1
2560 2048 m 1,6,-1
 2560 3584 l 1,7,-1
 3584 3584 l 1,8,-1
 3584 2560 l 1,9,-1
 3072 2560 l 1,10,-1
 3072 2048 l 1,11,-1
 2560 2048 l 1,6,-1
EndSplineSet
EndChar

StartChar: bullet
Encoding: 8226 8226 122
GlifName: bullet
Width: 4096
Flags: W
LayerCount: 2
Fore
SplineSet
1536 1024 m 1,0,-1
 1536 1536 l 1,1,-1
 1024 1536 l 1,2,-1
 1024 2560 l 1,3,-1
 1536 2560 l 1,4,-1
 1536 3072 l 1,5,-1
 2560 3072 l 1,6,-1
 2560 2560 l 1,7,-1
 3072 2560 l 1,8,-1
 3072 1536 l 1,9,-1
 2560 1536 l 1,10,-1
 2560 1024 l 1,11,-1
 1536 1024 l 1,0,-1
EndSplineSet
EndChar

StartChar: ellipsis
Encoding: 8230 8230 123
GlifName: ellipsis
Width: 4096
Flags: W
LayerCount: 2
Fore
SplineSet
0 0 m 1,0,-1
 0 1024 l 1,1,-1
 1024 1024 l 1,2,-1
 1024 0 l 1,3,-1
 0 0 l 1,0,-1
1536 0 m 1,4,-1
 1536 1024 l 1,5,-1
 2560 1024 l 1,6,-1
 2560 0 l 1,7,-1
 1536 0 l 1,4,-1
3072 0 m 1,8,-1
 3072 1024 l 1,9,-1
 4096 1024 l 1,10,-1
 4096 0 l 1,11,-1
 3072 0 l 1,8,-1
EndSplineSet
EndChar

StartChar: Euro
Encoding: 8364 8364 124
GlifName: E_uro
Width: 4096
Flags: W
LayerCount: 2
Fore
SplineSet
512 2048 m 1,0,-1
 512 3584 l 1,1,-1
 1536 3584 l 1,2,-1
 1536 3072 l 1,3,-1
 1024 3072 l 1,4,-1
 1024 2048 l 1,5,-1
 512 2048 l 1,0,-1
EndSplineSet
EndChar

StartChar: trademark
Encoding: 8482 8482 125
GlifName: trademark
Width: 4096
Flags: W
LayerCount: 2
Fore
SplineSet
2560 2048 m 1,0,-1
 2560 2560 l 1,1,-1
 3072 2560 l 1,2,-1
 3072 2048 l 1,3,-1
 2560 2048 l 1,0,-1
512 1536 m 1,4,-1
 512 3072 l 1,5,-1
 0 3072 l 1,6,-1
 0 3584 l 1,7,-1
 2048 3584 l 1,8,-1
 2048 3072 l 1,9,-1
 2560 3072 l 1,10,-1
 2560 2560 l 1,11,-1
 2048 2560 l 1,12,-1
 2048 1536 l 1,13,-1
 1536 1536 l 1,14,-1
 1536 3072 l 1,15,-1
 1024 3072 l 1,16,-1
 1024 1536 l 1,17,-1
 512 1536 l 1,4,-1
3584 1536 m 1,18,-1
 3584 2560 l 1,19,-1
 3072 2560 l 1,20,-1
 3072 3072 l 1,21,-1
 3584 3072 l 1,22,-1
 3584 3584 l 1,23,-1
 4096 3584 l 1,24,-1
 4096 1536 l 1,25,-1
 3584 1536 l 1,18,-1
EndSplineSet
EndChar
